<svg width="522" height="58" viewBox="0 0 522 58" fill="none" xmlns="http://www.w3.org/2000/svg">
<mask id="path-1-outside-1_73_6" maskUnits="userSpaceOnUse" x="-0.384766" y="0.396484" width="523" height="57" fill="black">
<rect fill="white" x="-0.384766" y="0.396484" width="523" height="57"/>
<path d="M27.1191 7.20898H36.9629L59.1113 53H49.3555L45.6934 45.2949H18.9453L15.4004 53H5.61523L27.1191 7.20898ZM42.0312 37.6484L32.1289 16.8477L22.4902 37.6484H42.0312Z"/>
<path d="M64.9121 4.39648H73.584V21.6816C74.3457 21.1543 75.2441 20.6562 76.2793 20.1875C77.3145 19.7188 78.4277 19.3086 79.6191 18.957C80.8105 18.6055 82.041 18.332 83.3105 18.1367C84.5801 17.9219 85.8496 17.8145 87.1191 17.8145C90.0488 17.8145 92.7344 18.2441 95.1758 19.1035C97.6367 19.9629 99.7461 21.1738 101.504 22.7363C103.262 24.2988 104.629 26.1738 105.605 28.3613C106.602 30.5293 107.1 32.9316 107.1 35.5684C107.1 38.3223 106.582 40.8125 105.547 43.0391C104.512 45.2461 103.076 47.1406 101.24 48.7227C99.4238 50.2852 97.2559 51.4961 94.7363 52.3555C92.2363 53.1953 89.5215 53.6152 86.5918 53.6152C85.3418 53.6152 84.1016 53.5371 82.8711 53.3809C81.6602 53.2246 80.4883 53.0098 79.3555 52.7363C78.2422 52.4629 77.1875 52.1406 76.1914 51.7695C75.2148 51.3789 74.3457 50.959 73.584 50.5098V53H64.9121V4.39648ZM73.584 42.1309C74.4629 42.834 75.3906 43.4297 76.3672 43.918C77.3438 44.4062 78.3398 44.8066 79.3555 45.1191C80.3711 45.4316 81.3965 45.666 82.4316 45.8223C83.4668 45.959 84.4727 46.0273 85.4492 46.0273C87.4414 46.0273 89.209 45.7637 90.752 45.2363C92.3145 44.6895 93.623 43.9473 94.6777 43.0098C95.752 42.0723 96.5723 40.9688 97.1387 39.6992C97.7051 38.4297 97.9883 37.0527 97.9883 35.5684C97.9883 34.1816 97.7051 32.873 97.1387 31.6426C96.5918 30.4121 95.791 29.3379 94.7363 28.4199C93.7012 27.4824 92.4414 26.75 90.957 26.2227C89.4922 25.6758 87.8418 25.4023 86.0059 25.4023C84.834 25.4023 83.6621 25.5195 82.4902 25.7539C81.3184 25.9688 80.1855 26.2812 79.0918 26.6914C78.0176 27.1016 77.002 27.5996 76.0449 28.1855C75.1074 28.7715 74.2871 29.4258 73.584 30.1484V42.1309Z"/>
<path d="M113.047 35.7148C113.047 33.2344 113.545 30.9102 114.541 28.7422C115.557 26.5742 116.992 24.6797 118.848 23.0586C120.723 21.4375 122.979 20.1582 125.615 19.2207C128.271 18.2832 131.25 17.8145 134.551 17.8145C137.852 17.8145 140.82 18.2832 143.457 19.2207C146.113 20.1582 148.369 21.4375 150.225 23.0586C152.1 24.6797 153.535 26.5742 154.531 28.7422C155.547 30.9102 156.055 33.2344 156.055 35.7148C156.055 38.1953 155.547 40.5195 154.531 42.6875C153.535 44.8555 152.1 46.75 150.225 48.3711C148.369 49.9922 146.113 51.2715 143.457 52.209C140.82 53.1465 137.852 53.6152 134.551 53.6152C131.25 53.6152 128.271 53.1465 125.615 52.209C122.979 51.2715 120.723 49.9922 118.848 48.3711C116.992 46.75 115.557 44.8555 114.541 42.6875C113.545 40.5195 113.047 38.1953 113.047 35.7148ZM122.158 35.7148C122.158 37.1016 122.432 38.4199 122.979 39.6699C123.545 40.9004 124.355 41.9941 125.41 42.9512C126.484 43.8887 127.783 44.6406 129.307 45.207C130.85 45.7539 132.598 46.0273 134.551 46.0273C136.504 46.0273 138.242 45.7539 139.766 45.207C141.309 44.6406 142.607 43.8887 143.662 42.9512C144.736 41.9941 145.547 40.9004 146.094 39.6699C146.66 38.4199 146.943 37.1016 146.943 35.7148C146.943 34.3281 146.66 33.0098 146.094 31.7598C145.547 30.5098 144.736 29.416 143.662 28.4785C142.607 27.5215 141.309 26.7695 139.766 26.2227C138.242 25.6562 136.504 25.373 134.551 25.373C132.598 25.373 130.85 25.6562 129.307 26.2227C127.783 26.7695 126.484 27.5215 125.41 28.4785C124.355 29.416 123.545 30.5098 122.979 31.7598C122.432 33.0098 122.158 34.3281 122.158 35.7148Z"/>
<path d="M164.814 18.4004H173.457V35.2754C173.457 36.877 173.633 38.3418 173.984 39.6699C174.336 40.9785 174.932 42.1016 175.771 43.0391C176.631 43.9766 177.764 44.709 179.17 45.2363C180.596 45.7441 182.363 45.998 184.473 45.998C185.469 45.998 186.475 45.8906 187.49 45.6758C188.525 45.4609 189.512 45.168 190.449 44.7969C191.387 44.4062 192.256 43.9473 193.057 43.4199C193.877 42.8926 194.58 42.3164 195.166 41.6914V18.4004H203.838V53H195.166V50.041C193.037 51.3105 190.898 52.2188 188.75 52.7656C186.602 53.3125 184.561 53.5859 182.627 53.5859C179.463 53.5859 176.748 53.2051 174.482 52.4434C172.236 51.6816 170.391 50.5781 168.945 49.1328C167.52 47.668 166.475 45.8809 165.811 43.7715C165.146 41.6426 164.814 39.2207 164.814 36.5059V18.4004Z"/>
<path d="M220.068 24.9336H211.719V18.4297H220.068V7.67773H228.74V18.4297H237.09V24.9336H228.74V53H220.068V24.9336Z"/>
<path d="M265.801 7.20898H306.758V15.3535H275.088V27.3359H301.982V34.9824H275.088V53H265.801V7.20898Z"/>
<path d="M312.998 42.1016C312.998 40.4414 313.359 38.9277 314.082 37.5605C314.805 36.1934 315.889 35.0215 317.334 34.0449C318.779 33.0488 320.576 32.2871 322.725 31.7598C324.893 31.2129 327.412 30.9395 330.283 30.9395C332.412 30.9395 334.648 31.0957 336.992 31.4082C339.355 31.7207 341.787 32.1992 344.287 32.8438C344.189 31.75 343.857 30.7441 343.291 29.8262C342.725 28.8887 341.934 28.0879 340.918 27.4238C339.922 26.7402 338.711 26.2129 337.285 25.8418C335.879 25.4707 334.277 25.2852 332.48 25.2852C331.504 25.2852 330.43 25.3438 329.258 25.4609C328.086 25.5781 326.875 25.7539 325.625 25.9883C324.375 26.2227 323.135 26.5156 321.904 26.8672C320.693 27.2188 319.561 27.6387 318.506 28.127L315.869 21.0078C317.178 20.5391 318.574 20.1094 320.059 19.7188C321.562 19.3281 323.096 18.9961 324.658 18.7227C326.221 18.4297 327.783 18.2051 329.346 18.0488C330.908 17.8926 332.422 17.8145 333.887 17.8145C340.352 17.8145 345.156 19.4648 348.301 22.7656C351.445 26.0664 353.018 31.125 353.018 37.9414V53H344.346V49.748C343.447 50.2754 342.461 50.7734 341.387 51.2422C340.332 51.7109 339.18 52.1211 337.93 52.4727C336.68 52.8242 335.332 53.0977 333.887 53.293C332.461 53.5078 330.947 53.6152 329.346 53.6152C326.65 53.6152 324.277 53.3223 322.227 52.7363C320.195 52.1504 318.496 51.3398 317.129 50.3047C315.762 49.2695 314.727 48.0586 314.023 46.6719C313.34 45.2656 312.998 43.7422 312.998 42.1016ZM322.139 41.8086C322.139 42.375 322.285 42.9219 322.578 43.4492C322.871 43.957 323.34 44.416 323.984 44.8262C324.629 45.2168 325.449 45.5391 326.445 45.793C327.461 46.0273 328.682 46.1445 330.107 46.1445C331.631 46.1445 333.105 46.0078 334.531 45.7344C335.957 45.4609 337.285 45.0996 338.516 44.6504C339.746 44.2012 340.859 43.6836 341.855 43.0977C342.852 42.5117 343.682 41.9062 344.346 41.2812V39.7578C343.018 39.3867 341.699 39.0742 340.391 38.8203C339.102 38.5664 337.861 38.3711 336.67 38.2344C335.498 38.0781 334.385 37.9707 333.33 37.9121C332.295 37.8535 331.387 37.8242 330.605 37.8242C328.984 37.8242 327.637 37.9316 326.562 38.1465C325.488 38.3613 324.619 38.6543 323.955 39.0254C323.291 39.377 322.822 39.7969 322.549 40.2852C322.275 40.7734 322.139 41.2812 322.139 41.8086Z"/>
<path d="M362.422 35.8027C362.422 33.2637 362.881 30.9004 363.799 28.7129C364.736 26.5059 366.094 24.6016 367.871 23C369.668 21.3789 371.855 20.1094 374.434 19.1914C377.031 18.2734 379.99 17.8145 383.311 17.8145C384.756 17.8145 386.211 17.9023 387.676 18.0781C389.141 18.2539 390.547 18.5078 391.895 18.8398C393.262 19.1523 394.541 19.5332 395.732 19.9824C396.924 20.4121 397.959 20.8906 398.838 21.418L394.824 27.9512C392.93 27.0723 391.133 26.4277 389.434 26.0176C387.754 25.6074 386.045 25.4023 384.307 25.4023C382.314 25.4023 380.527 25.666 378.945 26.1934C377.363 26.7012 376.016 27.4238 374.902 28.3613C373.809 29.2793 372.969 30.373 372.383 31.6426C371.816 32.8926 371.533 34.2598 371.533 35.7441C371.533 37.2285 371.836 38.6055 372.441 39.875C373.066 41.125 373.936 42.209 375.049 43.127C376.182 44.0254 377.539 44.7383 379.121 45.2656C380.723 45.7734 382.5 46.0273 384.453 46.0273C386.602 46.0273 388.623 45.7246 390.518 45.1191C392.432 44.5137 394.209 43.7031 395.85 42.6875L399.863 49.2207C398.828 49.8457 397.705 50.4316 396.494 50.9785C395.283 51.5059 393.984 51.9648 392.598 52.3555C391.23 52.7461 389.785 53.0488 388.262 53.2637C386.758 53.498 385.195 53.6152 383.574 53.6152C380.273 53.6152 377.314 53.166 374.697 52.2676C372.08 51.3691 369.863 50.1289 368.047 48.5469C366.23 46.9453 364.834 45.0605 363.857 42.8926C362.9 40.7246 362.422 38.3613 362.422 35.8027Z"/>
<path d="M413.779 13.7129C412.92 13.7129 412.139 13.5957 411.436 13.3613C410.752 13.1074 410.166 12.7754 409.678 12.3652C409.189 11.9355 408.809 11.4473 408.535 10.9004C408.281 10.334 408.154 9.73828 408.154 9.11328C408.154 8.46875 408.281 7.87305 408.535 7.32617C408.809 6.75977 409.189 6.27148 409.678 5.86133C410.166 5.45117 410.752 5.12891 411.436 4.89453C412.139 4.64062 412.92 4.51367 413.779 4.51367C414.658 4.51367 415.439 4.64062 416.123 4.89453C416.826 5.12891 417.422 5.45117 417.91 5.86133C418.398 6.27148 418.77 6.75977 419.023 7.32617C419.297 7.87305 419.434 8.46875 419.434 9.11328C419.434 9.73828 419.297 10.334 419.023 10.9004C418.77 11.4473 418.398 11.9355 417.91 12.3652C417.422 12.7754 416.826 13.1074 416.123 13.3613C415.439 13.5957 414.658 13.7129 413.779 13.7129ZM409.443 18.4297H418.115V53H409.443V18.4297Z"/>
<path d="M429.248 18.4297H437.92V21.3594C440.225 20.0508 442.422 19.1328 444.512 18.6055C446.621 18.0781 448.682 17.8145 450.693 17.8145C453.33 17.8145 455.771 18.2051 458.018 18.9863C460.264 19.748 462.207 20.8906 463.848 22.4141C465.488 23.9375 466.768 25.8418 467.686 28.127C468.623 30.3926 469.092 33.0195 469.092 36.0078V53H460.449V37.4141C460.449 35.5195 460.176 33.8301 459.629 32.3457C459.102 30.8418 458.33 29.582 457.314 28.5664C456.318 27.5312 455.098 26.75 453.652 26.2227C452.227 25.6758 450.625 25.4023 448.848 25.4023C447.91 25.4023 446.943 25.5 445.947 25.6953C444.971 25.8906 444.004 26.1738 443.047 26.5449C442.109 26.8965 441.201 27.3457 440.322 27.8926C439.443 28.4199 438.643 29.0254 437.92 29.709V53H429.248V18.4297Z"/>
<path d="M478.115 42.1016C478.115 40.4414 478.477 38.9277 479.199 37.5605C479.922 36.1934 481.006 35.0215 482.451 34.0449C483.896 33.0488 485.693 32.2871 487.842 31.7598C490.01 31.2129 492.529 30.9395 495.4 30.9395C497.529 30.9395 499.766 31.0957 502.109 31.4082C504.473 31.7207 506.904 32.1992 509.404 32.8438C509.307 31.75 508.975 30.7441 508.408 29.8262C507.842 28.8887 507.051 28.0879 506.035 27.4238C505.039 26.7402 503.828 26.2129 502.402 25.8418C500.996 25.4707 499.395 25.2852 497.598 25.2852C496.621 25.2852 495.547 25.3438 494.375 25.4609C493.203 25.5781 491.992 25.7539 490.742 25.9883C489.492 26.2227 488.252 26.5156 487.021 26.8672C485.811 27.2188 484.678 27.6387 483.623 28.127L480.986 21.0078C482.295 20.5391 483.691 20.1094 485.176 19.7188C486.68 19.3281 488.213 18.9961 489.775 18.7227C491.338 18.4297 492.9 18.2051 494.463 18.0488C496.025 17.8926 497.539 17.8145 499.004 17.8145C505.469 17.8145 510.273 19.4648 513.418 22.7656C516.562 26.0664 518.135 31.125 518.135 37.9414V53H509.463V49.748C508.564 50.2754 507.578 50.7734 506.504 51.2422C505.449 51.7109 504.297 52.1211 503.047 52.4727C501.797 52.8242 500.449 53.0977 499.004 53.293C497.578 53.5078 496.064 53.6152 494.463 53.6152C491.768 53.6152 489.395 53.3223 487.344 52.7363C485.312 52.1504 483.613 51.3398 482.246 50.3047C480.879 49.2695 479.844 48.0586 479.141 46.6719C478.457 45.2656 478.115 43.7422 478.115 42.1016ZM487.256 41.8086C487.256 42.375 487.402 42.9219 487.695 43.4492C487.988 43.957 488.457 44.416 489.102 44.8262C489.746 45.2168 490.566 45.5391 491.562 45.793C492.578 46.0273 493.799 46.1445 495.225 46.1445C496.748 46.1445 498.223 46.0078 499.648 45.7344C501.074 45.4609 502.402 45.0996 503.633 44.6504C504.863 44.2012 505.977 43.6836 506.973 43.0977C507.969 42.5117 508.799 41.9062 509.463 41.2812V39.7578C508.135 39.3867 506.816 39.0742 505.508 38.8203C504.219 38.5664 502.979 38.3711 501.787 38.2344C500.615 38.0781 499.502 37.9707 498.447 37.9121C497.412 37.8535 496.504 37.8242 495.723 37.8242C494.102 37.8242 492.754 37.9316 491.68 38.1465C490.605 38.3613 489.736 38.6543 489.072 39.0254C488.408 39.377 487.939 39.7969 487.666 40.2852C487.393 40.7734 487.256 41.2812 487.256 41.8086Z"/>
</mask>
<path d="M27.1191 7.20898H36.9629L59.1113 53H49.3555L45.6934 45.2949H18.9453L15.4004 53H5.61523L27.1191 7.20898ZM42.0312 37.6484L32.1289 16.8477L22.4902 37.6484H42.0312Z" fill="#D84242"/>
<path d="M64.9121 4.39648H73.584V21.6816C74.3457 21.1543 75.2441 20.6562 76.2793 20.1875C77.3145 19.7188 78.4277 19.3086 79.6191 18.957C80.8105 18.6055 82.041 18.332 83.3105 18.1367C84.5801 17.9219 85.8496 17.8145 87.1191 17.8145C90.0488 17.8145 92.7344 18.2441 95.1758 19.1035C97.6367 19.9629 99.7461 21.1738 101.504 22.7363C103.262 24.2988 104.629 26.1738 105.605 28.3613C106.602 30.5293 107.1 32.9316 107.1 35.5684C107.1 38.3223 106.582 40.8125 105.547 43.0391C104.512 45.2461 103.076 47.1406 101.24 48.7227C99.4238 50.2852 97.2559 51.4961 94.7363 52.3555C92.2363 53.1953 89.5215 53.6152 86.5918 53.6152C85.3418 53.6152 84.1016 53.5371 82.8711 53.3809C81.6602 53.2246 80.4883 53.0098 79.3555 52.7363C78.2422 52.4629 77.1875 52.1406 76.1914 51.7695C75.2148 51.3789 74.3457 50.959 73.584 50.5098V53H64.9121V4.39648ZM73.584 42.1309C74.4629 42.834 75.3906 43.4297 76.3672 43.918C77.3438 44.4062 78.3398 44.8066 79.3555 45.1191C80.3711 45.4316 81.3965 45.666 82.4316 45.8223C83.4668 45.959 84.4727 46.0273 85.4492 46.0273C87.4414 46.0273 89.209 45.7637 90.752 45.2363C92.3145 44.6895 93.623 43.9473 94.6777 43.0098C95.752 42.0723 96.5723 40.9688 97.1387 39.6992C97.7051 38.4297 97.9883 37.0527 97.9883 35.5684C97.9883 34.1816 97.7051 32.873 97.1387 31.6426C96.5918 30.4121 95.791 29.3379 94.7363 28.4199C93.7012 27.4824 92.4414 26.75 90.957 26.2227C89.4922 25.6758 87.8418 25.4023 86.0059 25.4023C84.834 25.4023 83.6621 25.5195 82.4902 25.7539C81.3184 25.9688 80.1855 26.2812 79.0918 26.6914C78.0176 27.1016 77.002 27.5996 76.0449 28.1855C75.1074 28.7715 74.2871 29.4258 73.584 30.1484V42.1309Z" fill="#D84242"/>
<path d="M113.047 35.7148C113.047 33.2344 113.545 30.9102 114.541 28.7422C115.557 26.5742 116.992 24.6797 118.848 23.0586C120.723 21.4375 122.979 20.1582 125.615 19.2207C128.271 18.2832 131.25 17.8145 134.551 17.8145C137.852 17.8145 140.82 18.2832 143.457 19.2207C146.113 20.1582 148.369 21.4375 150.225 23.0586C152.1 24.6797 153.535 26.5742 154.531 28.7422C155.547 30.9102 156.055 33.2344 156.055 35.7148C156.055 38.1953 155.547 40.5195 154.531 42.6875C153.535 44.8555 152.1 46.75 150.225 48.3711C148.369 49.9922 146.113 51.2715 143.457 52.209C140.82 53.1465 137.852 53.6152 134.551 53.6152C131.25 53.6152 128.271 53.1465 125.615 52.209C122.979 51.2715 120.723 49.9922 118.848 48.3711C116.992 46.75 115.557 44.8555 114.541 42.6875C113.545 40.5195 113.047 38.1953 113.047 35.7148ZM122.158 35.7148C122.158 37.1016 122.432 38.4199 122.979 39.6699C123.545 40.9004 124.355 41.9941 125.41 42.9512C126.484 43.8887 127.783 44.6406 129.307 45.207C130.85 45.7539 132.598 46.0273 134.551 46.0273C136.504 46.0273 138.242 45.7539 139.766 45.207C141.309 44.6406 142.607 43.8887 143.662 42.9512C144.736 41.9941 145.547 40.9004 146.094 39.6699C146.66 38.4199 146.943 37.1016 146.943 35.7148C146.943 34.3281 146.66 33.0098 146.094 31.7598C145.547 30.5098 144.736 29.416 143.662 28.4785C142.607 27.5215 141.309 26.7695 139.766 26.2227C138.242 25.6562 136.504 25.373 134.551 25.373C132.598 25.373 130.85 25.6562 129.307 26.2227C127.783 26.7695 126.484 27.5215 125.41 28.4785C124.355 29.416 123.545 30.5098 122.979 31.7598C122.432 33.0098 122.158 34.3281 122.158 35.7148Z" fill="#D84242"/>
<path d="M164.814 18.4004H173.457V35.2754C173.457 36.877 173.633 38.3418 173.984 39.6699C174.336 40.9785 174.932 42.1016 175.771 43.0391C176.631 43.9766 177.764 44.709 179.17 45.2363C180.596 45.7441 182.363 45.998 184.473 45.998C185.469 45.998 186.475 45.8906 187.49 45.6758C188.525 45.4609 189.512 45.168 190.449 44.7969C191.387 44.4062 192.256 43.9473 193.057 43.4199C193.877 42.8926 194.58 42.3164 195.166 41.6914V18.4004H203.838V53H195.166V50.041C193.037 51.3105 190.898 52.2188 188.75 52.7656C186.602 53.3125 184.561 53.5859 182.627 53.5859C179.463 53.5859 176.748 53.2051 174.482 52.4434C172.236 51.6816 170.391 50.5781 168.945 49.1328C167.52 47.668 166.475 45.8809 165.811 43.7715C165.146 41.6426 164.814 39.2207 164.814 36.5059V18.4004Z" fill="#D84242"/>
<path d="M220.068 24.9336H211.719V18.4297H220.068V7.67773H228.74V18.4297H237.09V24.9336H228.74V53H220.068V24.9336Z" fill="#D84242"/>
<path d="M265.801 7.20898H306.758V15.3535H275.088V27.3359H301.982V34.9824H275.088V53H265.801V7.20898Z" fill="#D84242"/>
<path d="M312.998 42.1016C312.998 40.4414 313.359 38.9277 314.082 37.5605C314.805 36.1934 315.889 35.0215 317.334 34.0449C318.779 33.0488 320.576 32.2871 322.725 31.7598C324.893 31.2129 327.412 30.9395 330.283 30.9395C332.412 30.9395 334.648 31.0957 336.992 31.4082C339.355 31.7207 341.787 32.1992 344.287 32.8438C344.189 31.75 343.857 30.7441 343.291 29.8262C342.725 28.8887 341.934 28.0879 340.918 27.4238C339.922 26.7402 338.711 26.2129 337.285 25.8418C335.879 25.4707 334.277 25.2852 332.48 25.2852C331.504 25.2852 330.43 25.3438 329.258 25.4609C328.086 25.5781 326.875 25.7539 325.625 25.9883C324.375 26.2227 323.135 26.5156 321.904 26.8672C320.693 27.2188 319.561 27.6387 318.506 28.127L315.869 21.0078C317.178 20.5391 318.574 20.1094 320.059 19.7188C321.562 19.3281 323.096 18.9961 324.658 18.7227C326.221 18.4297 327.783 18.2051 329.346 18.0488C330.908 17.8926 332.422 17.8145 333.887 17.8145C340.352 17.8145 345.156 19.4648 348.301 22.7656C351.445 26.0664 353.018 31.125 353.018 37.9414V53H344.346V49.748C343.447 50.2754 342.461 50.7734 341.387 51.2422C340.332 51.7109 339.18 52.1211 337.93 52.4727C336.68 52.8242 335.332 53.0977 333.887 53.293C332.461 53.5078 330.947 53.6152 329.346 53.6152C326.65 53.6152 324.277 53.3223 322.227 52.7363C320.195 52.1504 318.496 51.3398 317.129 50.3047C315.762 49.2695 314.727 48.0586 314.023 46.6719C313.34 45.2656 312.998 43.7422 312.998 42.1016ZM322.139 41.8086C322.139 42.375 322.285 42.9219 322.578 43.4492C322.871 43.957 323.34 44.416 323.984 44.8262C324.629 45.2168 325.449 45.5391 326.445 45.793C327.461 46.0273 328.682 46.1445 330.107 46.1445C331.631 46.1445 333.105 46.0078 334.531 45.7344C335.957 45.4609 337.285 45.0996 338.516 44.6504C339.746 44.2012 340.859 43.6836 341.855 43.0977C342.852 42.5117 343.682 41.9062 344.346 41.2812V39.7578C343.018 39.3867 341.699 39.0742 340.391 38.8203C339.102 38.5664 337.861 38.3711 336.67 38.2344C335.498 38.0781 334.385 37.9707 333.33 37.9121C332.295 37.8535 331.387 37.8242 330.605 37.8242C328.984 37.8242 327.637 37.9316 326.562 38.1465C325.488 38.3613 324.619 38.6543 323.955 39.0254C323.291 39.377 322.822 39.7969 322.549 40.2852C322.275 40.7734 322.139 41.2812 322.139 41.8086Z" fill="#D84242"/>
<path d="M362.422 35.8027C362.422 33.2637 362.881 30.9004 363.799 28.7129C364.736 26.5059 366.094 24.6016 367.871 23C369.668 21.3789 371.855 20.1094 374.434 19.1914C377.031 18.2734 379.99 17.8145 383.311 17.8145C384.756 17.8145 386.211 17.9023 387.676 18.0781C389.141 18.2539 390.547 18.5078 391.895 18.8398C393.262 19.1523 394.541 19.5332 395.732 19.9824C396.924 20.4121 397.959 20.8906 398.838 21.418L394.824 27.9512C392.93 27.0723 391.133 26.4277 389.434 26.0176C387.754 25.6074 386.045 25.4023 384.307 25.4023C382.314 25.4023 380.527 25.666 378.945 26.1934C377.363 26.7012 376.016 27.4238 374.902 28.3613C373.809 29.2793 372.969 30.373 372.383 31.6426C371.816 32.8926 371.533 34.2598 371.533 35.7441C371.533 37.2285 371.836 38.6055 372.441 39.875C373.066 41.125 373.936 42.209 375.049 43.127C376.182 44.0254 377.539 44.7383 379.121 45.2656C380.723 45.7734 382.5 46.0273 384.453 46.0273C386.602 46.0273 388.623 45.7246 390.518 45.1191C392.432 44.5137 394.209 43.7031 395.85 42.6875L399.863 49.2207C398.828 49.8457 397.705 50.4316 396.494 50.9785C395.283 51.5059 393.984 51.9648 392.598 52.3555C391.23 52.7461 389.785 53.0488 388.262 53.2637C386.758 53.498 385.195 53.6152 383.574 53.6152C380.273 53.6152 377.314 53.166 374.697 52.2676C372.08 51.3691 369.863 50.1289 368.047 48.5469C366.23 46.9453 364.834 45.0605 363.857 42.8926C362.9 40.7246 362.422 38.3613 362.422 35.8027Z" fill="#D84242"/>
<path d="M413.779 13.7129C412.92 13.7129 412.139 13.5957 411.436 13.3613C410.752 13.1074 410.166 12.7754 409.678 12.3652C409.189 11.9355 408.809 11.4473 408.535 10.9004C408.281 10.334 408.154 9.73828 408.154 9.11328C408.154 8.46875 408.281 7.87305 408.535 7.32617C408.809 6.75977 409.189 6.27148 409.678 5.86133C410.166 5.45117 410.752 5.12891 411.436 4.89453C412.139 4.64062 412.92 4.51367 413.779 4.51367C414.658 4.51367 415.439 4.64062 416.123 4.89453C416.826 5.12891 417.422 5.45117 417.91 5.86133C418.398 6.27148 418.77 6.75977 419.023 7.32617C419.297 7.87305 419.434 8.46875 419.434 9.11328C419.434 9.73828 419.297 10.334 419.023 10.9004C418.77 11.4473 418.398 11.9355 417.91 12.3652C417.422 12.7754 416.826 13.1074 416.123 13.3613C415.439 13.5957 414.658 13.7129 413.779 13.7129ZM409.443 18.4297H418.115V53H409.443V18.4297Z" fill="#D84242"/>
<path d="M429.248 18.4297H437.92V21.3594C440.225 20.0508 442.422 19.1328 444.512 18.6055C446.621 18.0781 448.682 17.8145 450.693 17.8145C453.33 17.8145 455.771 18.2051 458.018 18.9863C460.264 19.748 462.207 20.8906 463.848 22.4141C465.488 23.9375 466.768 25.8418 467.686 28.127C468.623 30.3926 469.092 33.0195 469.092 36.0078V53H460.449V37.4141C460.449 35.5195 460.176 33.8301 459.629 32.3457C459.102 30.8418 458.33 29.582 457.314 28.5664C456.318 27.5312 455.098 26.75 453.652 26.2227C452.227 25.6758 450.625 25.4023 448.848 25.4023C447.91 25.4023 446.943 25.5 445.947 25.6953C444.971 25.8906 444.004 26.1738 443.047 26.5449C442.109 26.8965 441.201 27.3457 440.322 27.8926C439.443 28.4199 438.643 29.0254 437.92 29.709V53H429.248V18.4297Z" fill="#D84242"/>
<path d="M478.115 42.1016C478.115 40.4414 478.477 38.9277 479.199 37.5605C479.922 36.1934 481.006 35.0215 482.451 34.0449C483.896 33.0488 485.693 32.2871 487.842 31.7598C490.01 31.2129 492.529 30.9395 495.4 30.9395C497.529 30.9395 499.766 31.0957 502.109 31.4082C504.473 31.7207 506.904 32.1992 509.404 32.8438C509.307 31.75 508.975 30.7441 508.408 29.8262C507.842 28.8887 507.051 28.0879 506.035 27.4238C505.039 26.7402 503.828 26.2129 502.402 25.8418C500.996 25.4707 499.395 25.2852 497.598 25.2852C496.621 25.2852 495.547 25.3438 494.375 25.4609C493.203 25.5781 491.992 25.7539 490.742 25.9883C489.492 26.2227 488.252 26.5156 487.021 26.8672C485.811 27.2188 484.678 27.6387 483.623 28.127L480.986 21.0078C482.295 20.5391 483.691 20.1094 485.176 19.7188C486.68 19.3281 488.213 18.9961 489.775 18.7227C491.338 18.4297 492.9 18.2051 494.463 18.0488C496.025 17.8926 497.539 17.8145 499.004 17.8145C505.469 17.8145 510.273 19.4648 513.418 22.7656C516.562 26.0664 518.135 31.125 518.135 37.9414V53H509.463V49.748C508.564 50.2754 507.578 50.7734 506.504 51.2422C505.449 51.7109 504.297 52.1211 503.047 52.4727C501.797 52.8242 500.449 53.0977 499.004 53.293C497.578 53.5078 496.064 53.6152 494.463 53.6152C491.768 53.6152 489.395 53.3223 487.344 52.7363C485.312 52.1504 483.613 51.3398 482.246 50.3047C480.879 49.2695 479.844 48.0586 479.141 46.6719C478.457 45.2656 478.115 43.7422 478.115 42.1016ZM487.256 41.8086C487.256 42.375 487.402 42.9219 487.695 43.4492C487.988 43.957 488.457 44.416 489.102 44.8262C489.746 45.2168 490.566 45.5391 491.562 45.793C492.578 46.0273 493.799 46.1445 495.225 46.1445C496.748 46.1445 498.223 46.0078 499.648 45.7344C501.074 45.4609 502.402 45.0996 503.633 44.6504C504.863 44.2012 505.977 43.6836 506.973 43.0977C507.969 42.5117 508.799 41.9062 509.463 41.2812V39.7578C508.135 39.3867 506.816 39.0742 505.508 38.8203C504.219 38.5664 502.979 38.3711 501.787 38.2344C500.615 38.0781 499.502 37.9707 498.447 37.9121C497.412 37.8535 496.504 37.8242 495.723 37.8242C494.102 37.8242 492.754 37.9316 491.68 38.1465C490.605 38.3613 489.736 38.6543 489.072 39.0254C488.408 39.377 487.939 39.7969 487.666 40.2852C487.393 40.7734 487.256 41.2812 487.256 41.8086Z" fill="#D84242"/>
<path d="M27.1191 7.20898H36.9629L59.1113 53H49.3555L45.6934 45.2949H18.9453L15.4004 53H5.61523L27.1191 7.20898ZM42.0312 37.6484L32.1289 16.8477L22.4902 37.6484H42.0312Z" stroke="#FFD979" stroke-width="7" mask="url(#path-1-outside-1_73_6)"/>
<path d="M64.9121 4.39648H73.584V21.6816C74.3457 21.1543 75.2441 20.6562 76.2793 20.1875C77.3145 19.7188 78.4277 19.3086 79.6191 18.957C80.8105 18.6055 82.041 18.332 83.3105 18.1367C84.5801 17.9219 85.8496 17.8145 87.1191 17.8145C90.0488 17.8145 92.7344 18.2441 95.1758 19.1035C97.6367 19.9629 99.7461 21.1738 101.504 22.7363C103.262 24.2988 104.629 26.1738 105.605 28.3613C106.602 30.5293 107.1 32.9316 107.1 35.5684C107.1 38.3223 106.582 40.8125 105.547 43.0391C104.512 45.2461 103.076 47.1406 101.24 48.7227C99.4238 50.2852 97.2559 51.4961 94.7363 52.3555C92.2363 53.1953 89.5215 53.6152 86.5918 53.6152C85.3418 53.6152 84.1016 53.5371 82.8711 53.3809C81.6602 53.2246 80.4883 53.0098 79.3555 52.7363C78.2422 52.4629 77.1875 52.1406 76.1914 51.7695C75.2148 51.3789 74.3457 50.959 73.584 50.5098V53H64.9121V4.39648ZM73.584 42.1309C74.4629 42.834 75.3906 43.4297 76.3672 43.918C77.3438 44.4062 78.3398 44.8066 79.3555 45.1191C80.3711 45.4316 81.3965 45.666 82.4316 45.8223C83.4668 45.959 84.4727 46.0273 85.4492 46.0273C87.4414 46.0273 89.209 45.7637 90.752 45.2363C92.3145 44.6895 93.623 43.9473 94.6777 43.0098C95.752 42.0723 96.5723 40.9688 97.1387 39.6992C97.7051 38.4297 97.9883 37.0527 97.9883 35.5684C97.9883 34.1816 97.7051 32.873 97.1387 31.6426C96.5918 30.4121 95.791 29.3379 94.7363 28.4199C93.7012 27.4824 92.4414 26.75 90.957 26.2227C89.4922 25.6758 87.8418 25.4023 86.0059 25.4023C84.834 25.4023 83.6621 25.5195 82.4902 25.7539C81.3184 25.9688 80.1855 26.2812 79.0918 26.6914C78.0176 27.1016 77.002 27.5996 76.0449 28.1855C75.1074 28.7715 74.2871 29.4258 73.584 30.1484V42.1309Z" stroke="#FFD979" stroke-width="7" mask="url(#path-1-outside-1_73_6)"/>
<path d="M113.047 35.7148C113.047 33.2344 113.545 30.9102 114.541 28.7422C115.557 26.5742 116.992 24.6797 118.848 23.0586C120.723 21.4375 122.979 20.1582 125.615 19.2207C128.271 18.2832 131.25 17.8145 134.551 17.8145C137.852 17.8145 140.82 18.2832 143.457 19.2207C146.113 20.1582 148.369 21.4375 150.225 23.0586C152.1 24.6797 153.535 26.5742 154.531 28.7422C155.547 30.9102 156.055 33.2344 156.055 35.7148C156.055 38.1953 155.547 40.5195 154.531 42.6875C153.535 44.8555 152.1 46.75 150.225 48.3711C148.369 49.9922 146.113 51.2715 143.457 52.209C140.82 53.1465 137.852 53.6152 134.551 53.6152C131.25 53.6152 128.271 53.1465 125.615 52.209C122.979 51.2715 120.723 49.9922 118.848 48.3711C116.992 46.75 115.557 44.8555 114.541 42.6875C113.545 40.5195 113.047 38.1953 113.047 35.7148ZM122.158 35.7148C122.158 37.1016 122.432 38.4199 122.979 39.6699C123.545 40.9004 124.355 41.9941 125.41 42.9512C126.484 43.8887 127.783 44.6406 129.307 45.207C130.85 45.7539 132.598 46.0273 134.551 46.0273C136.504 46.0273 138.242 45.7539 139.766 45.207C141.309 44.6406 142.607 43.8887 143.662 42.9512C144.736 41.9941 145.547 40.9004 146.094 39.6699C146.66 38.4199 146.943 37.1016 146.943 35.7148C146.943 34.3281 146.66 33.0098 146.094 31.7598C145.547 30.5098 144.736 29.416 143.662 28.4785C142.607 27.5215 141.309 26.7695 139.766 26.2227C138.242 25.6562 136.504 25.373 134.551 25.373C132.598 25.373 130.85 25.6562 129.307 26.2227C127.783 26.7695 126.484 27.5215 125.41 28.4785C124.355 29.416 123.545 30.5098 122.979 31.7598C122.432 33.0098 122.158 34.3281 122.158 35.7148Z" stroke="#FFD979" stroke-width="7" mask="url(#path-1-outside-1_73_6)"/>
<path d="M164.814 18.4004H173.457V35.2754C173.457 36.877 173.633 38.3418 173.984 39.6699C174.336 40.9785 174.932 42.1016 175.771 43.0391C176.631 43.9766 177.764 44.709 179.17 45.2363C180.596 45.7441 182.363 45.998 184.473 45.998C185.469 45.998 186.475 45.8906 187.49 45.6758C188.525 45.4609 189.512 45.168 190.449 44.7969C191.387 44.4062 192.256 43.9473 193.057 43.4199C193.877 42.8926 194.58 42.3164 195.166 41.6914V18.4004H203.838V53H195.166V50.041C193.037 51.3105 190.898 52.2188 188.75 52.7656C186.602 53.3125 184.561 53.5859 182.627 53.5859C179.463 53.5859 176.748 53.2051 174.482 52.4434C172.236 51.6816 170.391 50.5781 168.945 49.1328C167.52 47.668 166.475 45.8809 165.811 43.7715C165.146 41.6426 164.814 39.2207 164.814 36.5059V18.4004Z" stroke="#FFD979" stroke-width="7" mask="url(#path-1-outside-1_73_6)"/>
<path d="M220.068 24.9336H211.719V18.4297H220.068V7.67773H228.74V18.4297H237.09V24.9336H228.74V53H220.068V24.9336Z" stroke="#FFD979" stroke-width="7" mask="url(#path-1-outside-1_73_6)"/>
<path d="M265.801 7.20898H306.758V15.3535H275.088V27.3359H301.982V34.9824H275.088V53H265.801V7.20898Z" stroke="#FFD979" stroke-width="7" mask="url(#path-1-outside-1_73_6)"/>
<path d="M312.998 42.1016C312.998 40.4414 313.359 38.9277 314.082 37.5605C314.805 36.1934 315.889 35.0215 317.334 34.0449C318.779 33.0488 320.576 32.2871 322.725 31.7598C324.893 31.2129 327.412 30.9395 330.283 30.9395C332.412 30.9395 334.648 31.0957 336.992 31.4082C339.355 31.7207 341.787 32.1992 344.287 32.8438C344.189 31.75 343.857 30.7441 343.291 29.8262C342.725 28.8887 341.934 28.0879 340.918 27.4238C339.922 26.7402 338.711 26.2129 337.285 25.8418C335.879 25.4707 334.277 25.2852 332.48 25.2852C331.504 25.2852 330.43 25.3438 329.258 25.4609C328.086 25.5781 326.875 25.7539 325.625 25.9883C324.375 26.2227 323.135 26.5156 321.904 26.8672C320.693 27.2188 319.561 27.6387 318.506 28.127L315.869 21.0078C317.178 20.5391 318.574 20.1094 320.059 19.7188C321.562 19.3281 323.096 18.9961 324.658 18.7227C326.221 18.4297 327.783 18.2051 329.346 18.0488C330.908 17.8926 332.422 17.8145 333.887 17.8145C340.352 17.8145 345.156 19.4648 348.301 22.7656C351.445 26.0664 353.018 31.125 353.018 37.9414V53H344.346V49.748C343.447 50.2754 342.461 50.7734 341.387 51.2422C340.332 51.7109 339.18 52.1211 337.93 52.4727C336.68 52.8242 335.332 53.0977 333.887 53.293C332.461 53.5078 330.947 53.6152 329.346 53.6152C326.65 53.6152 324.277 53.3223 322.227 52.7363C320.195 52.1504 318.496 51.3398 317.129 50.3047C315.762 49.2695 314.727 48.0586 314.023 46.6719C313.34 45.2656 312.998 43.7422 312.998 42.1016ZM322.139 41.8086C322.139 42.375 322.285 42.9219 322.578 43.4492C322.871 43.957 323.34 44.416 323.984 44.8262C324.629 45.2168 325.449 45.5391 326.445 45.793C327.461 46.0273 328.682 46.1445 330.107 46.1445C331.631 46.1445 333.105 46.0078 334.531 45.7344C335.957 45.4609 337.285 45.0996 338.516 44.6504C339.746 44.2012 340.859 43.6836 341.855 43.0977C342.852 42.5117 343.682 41.9062 344.346 41.2812V39.7578C343.018 39.3867 341.699 39.0742 340.391 38.8203C339.102 38.5664 337.861 38.3711 336.67 38.2344C335.498 38.0781 334.385 37.9707 333.33 37.9121C332.295 37.8535 331.387 37.8242 330.605 37.8242C328.984 37.8242 327.637 37.9316 326.562 38.1465C325.488 38.3613 324.619 38.6543 323.955 39.0254C323.291 39.377 322.822 39.7969 322.549 40.2852C322.275 40.7734 322.139 41.2812 322.139 41.8086Z" stroke="#FFD979" stroke-width="7" mask="url(#path-1-outside-1_73_6)"/>
<path d="M362.422 35.8027C362.422 33.2637 362.881 30.9004 363.799 28.7129C364.736 26.5059 366.094 24.6016 367.871 23C369.668 21.3789 371.855 20.1094 374.434 19.1914C377.031 18.2734 379.99 17.8145 383.311 17.8145C384.756 17.8145 386.211 17.9023 387.676 18.0781C389.141 18.2539 390.547 18.5078 391.895 18.8398C393.262 19.1523 394.541 19.5332 395.732 19.9824C396.924 20.4121 397.959 20.8906 398.838 21.418L394.824 27.9512C392.93 27.0723 391.133 26.4277 389.434 26.0176C387.754 25.6074 386.045 25.4023 384.307 25.4023C382.314 25.4023 380.527 25.666 378.945 26.1934C377.363 26.7012 376.016 27.4238 374.902 28.3613C373.809 29.2793 372.969 30.373 372.383 31.6426C371.816 32.8926 371.533 34.2598 371.533 35.7441C371.533 37.2285 371.836 38.6055 372.441 39.875C373.066 41.125 373.936 42.209 375.049 43.127C376.182 44.0254 377.539 44.7383 379.121 45.2656C380.723 45.7734 382.5 46.0273 384.453 46.0273C386.602 46.0273 388.623 45.7246 390.518 45.1191C392.432 44.5137 394.209 43.7031 395.85 42.6875L399.863 49.2207C398.828 49.8457 397.705 50.4316 396.494 50.9785C395.283 51.5059 393.984 51.9648 392.598 52.3555C391.23 52.7461 389.785 53.0488 388.262 53.2637C386.758 53.498 385.195 53.6152 383.574 53.6152C380.273 53.6152 377.314 53.166 374.697 52.2676C372.08 51.3691 369.863 50.1289 368.047 48.5469C366.23 46.9453 364.834 45.0605 363.857 42.8926C362.9 40.7246 362.422 38.3613 362.422 35.8027Z" stroke="#FFD979" stroke-width="7" mask="url(#path-1-outside-1_73_6)"/>
<path d="M413.779 13.7129C412.92 13.7129 412.139 13.5957 411.436 13.3613C410.752 13.1074 410.166 12.7754 409.678 12.3652C409.189 11.9355 408.809 11.4473 408.535 10.9004C408.281 10.334 408.154 9.73828 408.154 9.11328C408.154 8.46875 408.281 7.87305 408.535 7.32617C408.809 6.75977 409.189 6.27148 409.678 5.86133C410.166 5.45117 410.752 5.12891 411.436 4.89453C412.139 4.64062 412.92 4.51367 413.779 4.51367C414.658 4.51367 415.439 4.64062 416.123 4.89453C416.826 5.12891 417.422 5.45117 417.91 5.86133C418.398 6.27148 418.77 6.75977 419.023 7.32617C419.297 7.87305 419.434 8.46875 419.434 9.11328C419.434 9.73828 419.297 10.334 419.023 10.9004C418.77 11.4473 418.398 11.9355 417.91 12.3652C417.422 12.7754 416.826 13.1074 416.123 13.3613C415.439 13.5957 414.658 13.7129 413.779 13.7129ZM409.443 18.4297H418.115V53H409.443V18.4297Z" stroke="#FFD979" stroke-width="7" mask="url(#path-1-outside-1_73_6)"/>
<path d="M429.248 18.4297H437.92V21.3594C440.225 20.0508 442.422 19.1328 444.512 18.6055C446.621 18.0781 448.682 17.8145 450.693 17.8145C453.33 17.8145 455.771 18.2051 458.018 18.9863C460.264 19.748 462.207 20.8906 463.848 22.4141C465.488 23.9375 466.768 25.8418 467.686 28.127C468.623 30.3926 469.092 33.0195 469.092 36.0078V53H460.449V37.4141C460.449 35.5195 460.176 33.8301 459.629 32.3457C459.102 30.8418 458.33 29.582 457.314 28.5664C456.318 27.5312 455.098 26.75 453.652 26.2227C452.227 25.6758 450.625 25.4023 448.848 25.4023C447.91 25.4023 446.943 25.5 445.947 25.6953C444.971 25.8906 444.004 26.1738 443.047 26.5449C442.109 26.8965 441.201 27.3457 440.322 27.8926C439.443 28.4199 438.643 29.0254 437.92 29.709V53H429.248V18.4297Z" stroke="#FFD979" stroke-width="7" mask="url(#path-1-outside-1_73_6)"/>
<path d="M478.115 42.1016C478.115 40.4414 478.477 38.9277 479.199 37.5605C479.922 36.1934 481.006 35.0215 482.451 34.0449C483.896 33.0488 485.693 32.2871 487.842 31.7598C490.01 31.2129 492.529 30.9395 495.4 30.9395C497.529 30.9395 499.766 31.0957 502.109 31.4082C504.473 31.7207 506.904 32.1992 509.404 32.8438C509.307 31.75 508.975 30.7441 508.408 29.8262C507.842 28.8887 507.051 28.0879 506.035 27.4238C505.039 26.7402 503.828 26.2129 502.402 25.8418C500.996 25.4707 499.395 25.2852 497.598 25.2852C496.621 25.2852 495.547 25.3438 494.375 25.4609C493.203 25.5781 491.992 25.7539 490.742 25.9883C489.492 26.2227 488.252 26.5156 487.021 26.8672C485.811 27.2188 484.678 27.6387 483.623 28.127L480.986 21.0078C482.295 20.5391 483.691 20.1094 485.176 19.7188C486.68 19.3281 488.213 18.9961 489.775 18.7227C491.338 18.4297 492.9 18.2051 494.463 18.0488C496.025 17.8926 497.539 17.8145 499.004 17.8145C505.469 17.8145 510.273 19.4648 513.418 22.7656C516.562 26.0664 518.135 31.125 518.135 37.9414V53H509.463V49.748C508.564 50.2754 507.578 50.7734 506.504 51.2422C505.449 51.7109 504.297 52.1211 503.047 52.4727C501.797 52.8242 500.449 53.0977 499.004 53.293C497.578 53.5078 496.064 53.6152 494.463 53.6152C491.768 53.6152 489.395 53.3223 487.344 52.7363C485.312 52.1504 483.613 51.3398 482.246 50.3047C480.879 49.2695 479.844 48.0586 479.141 46.6719C478.457 45.2656 478.115 43.7422 478.115 42.1016ZM487.256 41.8086C487.256 42.375 487.402 42.9219 487.695 43.4492C487.988 43.957 488.457 44.416 489.102 44.8262C489.746 45.2168 490.566 45.5391 491.562 45.793C492.578 46.0273 493.799 46.1445 495.225 46.1445C496.748 46.1445 498.223 46.0078 499.648 45.7344C501.074 45.4609 502.402 45.0996 503.633 44.6504C504.863 44.2012 505.977 43.6836 506.973 43.0977C507.969 42.5117 508.799 41.9062 509.463 41.2812V39.7578C508.135 39.3867 506.816 39.0742 505.508 38.8203C504.219 38.5664 502.979 38.3711 501.787 38.2344C500.615 38.0781 499.502 37.9707 498.447 37.9121C497.412 37.8535 496.504 37.8242 495.723 37.8242C494.102 37.8242 492.754 37.9316 491.68 38.1465C490.605 38.3613 489.736 38.6543 489.072 39.0254C488.408 39.377 487.939 39.7969 487.666 40.2852C487.393 40.7734 487.256 41.2812 487.256 41.8086Z" stroke="#FFD979" stroke-width="7" mask="url(#path-1-outside-1_73_6)"/>
</svg>
