<svg width="808" height="64" viewBox="0 0 808 64" fill="none" xmlns="http://www.w3.org/2000/svg">
<path d="M0.503906 3.20898H41.4609V11.3535H9.79102V23.3359H36.6855V30.9824H9.79102V49H0.503906V3.20898ZM49.3418 14.4297H58.0137V19.4102C59.9277 17.9844 61.9492 16.7539 64.0781 15.7188C66.207 14.6836 68.3262 13.8926 70.4355 13.3457L72.9844 21.2852C69.6445 21.6172 66.7051 22.3691 64.166 23.541C61.6465 24.6934 59.5957 26.3242 58.0137 28.4336V49H49.3418V14.4297ZM77.3789 31.7148C77.3789 29.2344 77.877 26.9102 78.873 24.7422C79.8887 22.5742 81.3242 20.6797 83.1797 19.0586C85.0547 17.4375 87.3105 16.1582 89.9473 15.2207C92.6035 14.2832 95.582 13.8145 98.8828 13.8145C102.184 13.8145 105.152 14.2832 107.789 15.2207C110.445 16.1582 112.701 17.4375 114.557 19.0586C116.432 20.6797 117.867 22.5742 118.863 24.7422C119.879 26.9102 120.387 29.2344 120.387 31.7148C120.387 34.1953 119.879 36.5195 118.863 38.6875C117.867 40.8555 116.432 42.75 114.557 44.3711C112.701 45.9922 110.445 47.2715 107.789 48.209C105.152 49.1465 102.184 49.6152 98.8828 49.6152C95.582 49.6152 92.6035 49.1465 89.9473 48.209C87.3105 47.2715 85.0547 45.9922 83.1797 44.3711C81.3242 42.75 79.8887 40.8555 78.873 38.6875C77.877 36.5195 77.3789 34.1953 77.3789 31.7148ZM86.4902 31.7148C86.4902 33.1016 86.7637 34.4199 87.3105 35.6699C87.877 36.9004 88.6875 37.9941 89.7422 38.9512C90.8164 39.8887 92.1152 40.6406 93.6387 41.207C95.1816 41.7539 96.9297 42.0273 98.8828 42.0273C100.836 42.0273 102.574 41.7539 104.098 41.207C105.641 40.6406 106.939 39.8887 107.994 38.9512C109.068 37.9941 109.879 36.9004 110.426 35.6699C110.992 34.4199 111.275 33.1016 111.275 31.7148C111.275 30.3281 110.992 29.0098 110.426 27.7598C109.879 26.5098 109.068 25.416 107.994 24.4785C106.939 23.5215 105.641 22.7695 104.098 22.2227C102.574 21.6562 100.836 21.373 98.8828 21.373C96.9297 21.373 95.1816 21.6562 93.6387 22.2227C92.1152 22.7695 90.8164 23.5215 89.7422 24.4785C88.6875 25.416 87.877 26.5098 87.3105 27.7598C86.7637 29.0098 86.4902 30.3281 86.4902 31.7148ZM129.146 14.4297H137.818V17.3594C140.123 16.0508 142.32 15.1328 144.41 14.6055C146.52 14.0781 148.58 13.8145 150.592 13.8145C153.229 13.8145 155.67 14.2051 157.916 14.9863C160.162 15.748 162.105 16.8906 163.746 18.4141C165.387 19.9375 166.666 21.8418 167.584 24.127C168.521 26.3926 168.99 29.0195 168.99 32.0078V49H160.348V33.4141C160.348 31.5195 160.074 29.8301 159.527 28.3457C159 26.8418 158.229 25.582 157.213 24.5664C156.217 23.5312 154.996 22.75 153.551 22.2227C152.125 21.6758 150.523 21.4023 148.746 21.4023C147.809 21.4023 146.842 21.5 145.846 21.6953C144.869 21.8906 143.902 22.1738 142.945 22.5449C142.008 22.8965 141.1 23.3457 140.221 23.8926C139.342 24.4199 138.541 25.0254 137.818 25.709V49H129.146V14.4297ZM184.869 20.9336H176.52V14.4297H184.869V3.67773H193.541V14.4297H201.891V20.9336H193.541V49H184.869V20.9336ZM208.189 22.457H235.055V28.9609H208.189V22.457ZM245.602 3.20898H284.596V11.3535H254.889V20.4941H281.197V28.1406H254.889V40.8848H285.211V49H245.602V3.20898ZM294.439 14.4297H303.111V17.3594C305.416 16.0508 307.613 15.1328 309.703 14.6055C311.812 14.0781 313.873 13.8145 315.885 13.8145C318.521 13.8145 320.963 14.2051 323.209 14.9863C325.455 15.748 327.398 16.8906 329.039 18.4141C330.68 19.9375 331.959 21.8418 332.877 24.127C333.814 26.3926 334.283 29.0195 334.283 32.0078V49H325.641V33.4141C325.641 31.5195 325.367 29.8301 324.82 28.3457C324.293 26.8418 323.521 25.582 322.506 24.5664C321.51 23.5312 320.289 22.75 318.844 22.2227C317.418 21.6758 315.816 21.4023 314.039 21.4023C313.102 21.4023 312.135 21.5 311.139 21.6953C310.162 21.8906 309.195 22.1738 308.238 22.5449C307.301 22.8965 306.393 23.3457 305.514 23.8926C304.635 24.4199 303.834 25.0254 303.111 25.709V49H294.439V14.4297ZM342.281 31.8613C342.281 29.1074 342.799 26.627 343.834 24.4199C344.869 22.1934 346.295 20.2988 348.111 18.7363C349.947 17.1543 352.115 15.9434 354.615 15.1035C357.135 14.2441 359.859 13.8145 362.789 13.8145C364.039 13.8145 365.27 13.8926 366.48 14.0488C367.711 14.2051 368.883 14.4199 369.996 14.6934C371.129 14.9668 372.184 15.2988 373.16 15.6895C374.156 16.0605 375.035 16.4707 375.797 16.9199V0.396484H384.469V49H375.797V45.748C375.035 46.2754 374.137 46.7734 373.102 47.2422C372.066 47.7109 370.953 48.1211 369.762 48.4727C368.57 48.8242 367.33 49.0977 366.041 49.293C364.771 49.5078 363.512 49.6152 362.262 49.6152C359.332 49.6152 356.637 49.1855 354.176 48.3262C351.734 47.4668 349.635 46.2559 347.877 44.6934C346.119 43.1309 344.742 41.2656 343.746 39.0977C342.77 36.9102 342.281 34.498 342.281 31.8613ZM351.393 31.8613C351.393 33.248 351.666 34.5566 352.213 35.7871C352.779 37.0176 353.58 38.1016 354.615 39.0391C355.67 39.957 356.93 40.6895 358.395 41.2363C359.879 41.7637 361.539 42.0273 363.375 42.0273C364.547 42.0273 365.719 41.9199 366.891 41.7051C368.062 41.4707 369.186 41.1484 370.26 40.7383C371.354 40.3281 372.369 39.8301 373.307 39.2441C374.264 38.6582 375.094 38.0039 375.797 37.2812V25.2988C374.918 24.5957 373.99 24 373.014 23.5117C372.037 23.0234 371.041 22.623 370.025 22.3105C369.01 21.998 367.984 21.7734 366.949 21.6367C365.914 21.4805 364.908 21.4023 363.932 21.4023C361.939 21.4023 360.162 21.6758 358.6 22.2227C357.057 22.75 355.748 23.4824 354.674 24.4199C353.619 25.3574 352.809 26.4609 352.242 27.7305C351.676 29 351.393 30.377 351.393 31.8613ZM416.109 3.20898H432.896C437.799 3.20898 442.057 3.73633 445.67 4.79102C449.283 5.8457 452.271 7.35938 454.635 9.33203C457.018 11.2852 458.785 13.668 459.938 16.4805C461.109 19.2734 461.695 22.418 461.695 25.9141C461.695 29.2344 461.119 32.3105 459.967 35.1426C458.814 37.9551 457.057 40.3965 454.693 42.4668C452.33 44.5176 449.342 46.1289 445.729 47.3008C442.115 48.4531 437.857 49.0293 432.955 49.0293L416.109 49V3.20898ZM435.182 40.9727C437.955 40.9727 440.387 40.6211 442.477 39.918C444.566 39.1953 446.305 38.1797 447.691 36.8711C449.098 35.5625 450.152 33.9805 450.855 32.125C451.559 30.2695 451.91 28.1992 451.91 25.9141C451.91 23.668 451.559 21.6465 450.855 19.8496C450.152 18.0332 449.098 16.5 447.691 15.25C446.305 13.9805 444.566 13.0039 442.477 12.3203C440.387 11.6367 437.955 11.2949 435.182 11.2949H425.396V40.9727H435.182ZM468.287 31.5977C468.287 29.2539 468.766 27.0176 469.723 24.8887C470.68 22.7402 472.057 20.8457 473.854 19.2051C475.65 17.5645 477.848 16.2559 480.445 15.2793C483.062 14.3027 486.031 13.8145 489.352 13.8145C492.652 13.8145 495.621 14.3125 498.258 15.3086C500.914 16.2852 503.16 17.6328 504.996 19.3516C506.852 21.0703 508.268 23.0918 509.244 25.416C510.24 27.7402 510.738 30.2305 510.738 32.8867C510.738 33.2188 510.729 33.5801 510.709 33.9707C510.709 34.3418 510.689 34.6836 510.65 34.9961H477.955C478.326 36.0312 478.922 36.9785 479.742 37.8379C480.582 38.6973 481.627 39.4395 482.877 40.0645C484.127 40.6895 485.572 41.1777 487.213 41.5293C488.854 41.8613 490.67 42.0273 492.662 42.0273C494.654 42.0273 496.637 41.8223 498.609 41.4121C500.582 40.9824 502.467 40.4453 504.264 39.8008L507.193 46.4219C506.061 46.9492 504.908 47.418 503.736 47.8281C502.584 48.2188 501.373 48.5508 500.104 48.8242C498.854 49.0781 497.535 49.2734 496.148 49.4102C494.781 49.5469 493.336 49.6152 491.812 49.6152C487.926 49.6152 484.518 49.1465 481.588 48.209C478.658 47.2715 476.207 45.9922 474.234 44.3711C472.262 42.75 470.777 40.8457 469.781 38.6582C468.785 36.4707 468.287 34.1172 468.287 31.5977ZM501.539 28.2285C501.227 27.2715 500.738 26.3828 500.074 25.5625C499.43 24.7227 498.619 24 497.643 23.3945C496.666 22.7695 495.533 22.2812 494.244 21.9297C492.955 21.5781 491.539 21.4023 489.996 21.4023C488.355 21.4023 486.861 21.5879 485.514 21.959C484.166 22.3301 482.984 22.8281 481.969 23.4531C480.953 24.0781 480.104 24.8008 479.42 25.6211C478.756 26.4414 478.268 27.3105 477.955 28.2285H501.539ZM515.309 14.4004H525.357L534.352 35.2012L536.695 41.0312L539.039 35.2012L548.033 14.4004H558.082L541.705 49H531.686L515.309 14.4004ZM562.506 31.5977C562.506 29.2539 562.984 27.0176 563.941 24.8887C564.898 22.7402 566.275 20.8457 568.072 19.2051C569.869 17.5645 572.066 16.2559 574.664 15.2793C577.281 14.3027 580.25 13.8145 583.57 13.8145C586.871 13.8145 589.84 14.3125 592.477 15.3086C595.133 16.2852 597.379 17.6328 599.215 19.3516C601.07 21.0703 602.486 23.0918 603.463 25.416C604.459 27.7402 604.957 30.2305 604.957 32.8867C604.957 33.2188 604.947 33.5801 604.928 33.9707C604.928 34.3418 604.908 34.6836 604.869 34.9961H572.174C572.545 36.0312 573.141 36.9785 573.961 37.8379C574.801 38.6973 575.846 39.4395 577.096 40.0645C578.346 40.6895 579.791 41.1777 581.432 41.5293C583.072 41.8613 584.889 42.0273 586.881 42.0273C588.873 42.0273 590.855 41.8223 592.828 41.4121C594.801 40.9824 596.686 40.4453 598.482 39.8008L601.412 46.4219C600.279 46.9492 599.127 47.418 597.955 47.8281C596.803 48.2188 595.592 48.5508 594.322 48.8242C593.072 49.0781 591.754 49.2734 590.367 49.4102C589 49.5469 587.555 49.6152 586.031 49.6152C582.145 49.6152 578.736 49.1465 575.807 48.209C572.877 47.2715 570.426 45.9922 568.453 44.3711C566.48 42.75 564.996 40.8457 564 38.6582C563.004 36.4707 562.506 34.1172 562.506 31.5977ZM595.758 28.2285C595.445 27.2715 594.957 26.3828 594.293 25.5625C593.648 24.7227 592.838 24 591.861 23.3945C590.885 22.7695 589.752 22.2812 588.463 21.9297C587.174 21.5781 585.758 21.4023 584.215 21.4023C582.574 21.4023 581.08 21.5879 579.732 21.959C578.385 22.3301 577.203 22.8281 576.188 23.4531C575.172 24.0781 574.322 24.8008 573.639 25.6211C572.975 26.4414 572.486 27.3105 572.174 28.2285H595.758ZM614.537 0.396484H623.209V49H614.537V0.396484ZM632.262 31.7148C632.262 29.2344 632.76 26.9102 633.756 24.7422C634.771 22.5742 636.207 20.6797 638.062 19.0586C639.938 17.4375 642.193 16.1582 644.83 15.2207C647.486 14.2832 650.465 13.8145 653.766 13.8145C657.066 13.8145 660.035 14.2832 662.672 15.2207C665.328 16.1582 667.584 17.4375 669.439 19.0586C671.314 20.6797 672.75 22.5742 673.746 24.7422C674.762 26.9102 675.27 29.2344 675.27 31.7148C675.27 34.1953 674.762 36.5195 673.746 38.6875C672.75 40.8555 671.314 42.75 669.439 44.3711C667.584 45.9922 665.328 47.2715 662.672 48.209C660.035 49.1465 657.066 49.6152 653.766 49.6152C650.465 49.6152 647.486 49.1465 644.83 48.209C642.193 47.2715 639.938 45.9922 638.062 44.3711C636.207 42.75 634.771 40.8555 633.756 38.6875C632.76 36.5195 632.262 34.1953 632.262 31.7148ZM641.373 31.7148C641.373 33.1016 641.646 34.4199 642.193 35.6699C642.76 36.9004 643.57 37.9941 644.625 38.9512C645.699 39.8887 646.998 40.6406 648.521 41.207C650.064 41.7539 651.812 42.0273 653.766 42.0273C655.719 42.0273 657.457 41.7539 658.98 41.207C660.523 40.6406 661.822 39.8887 662.877 38.9512C663.951 37.9941 664.762 36.9004 665.309 35.6699C665.875 34.4199 666.158 33.1016 666.158 31.7148C666.158 30.3281 665.875 29.0098 665.309 27.7598C664.762 26.5098 663.951 25.416 662.877 24.4785C661.822 23.5215 660.523 22.7695 658.98 22.2227C657.457 21.6562 655.719 21.373 653.766 21.373C651.812 21.373 650.064 21.6562 648.521 22.2227C646.998 22.7695 645.699 23.5215 644.625 24.4785C643.57 25.416 642.76 26.5098 642.193 27.7598C641.646 29.0098 641.373 30.3281 641.373 31.7148ZM692.467 63.1211H683.795V14.4297H692.467V17.6816C693.229 17.1543 694.127 16.6562 695.162 16.1875C696.197 15.7188 697.311 15.3086 698.502 14.957C699.693 14.6055 700.924 14.332 702.193 14.1367C703.463 13.9219 704.732 13.8145 706.002 13.8145C708.932 13.8145 711.617 14.2441 714.059 15.1035C716.52 15.9629 718.629 17.1738 720.387 18.7363C722.145 20.2988 723.512 22.1738 724.488 24.3613C725.484 26.5293 725.982 28.9316 725.982 31.5684C725.982 34.3223 725.465 36.8125 724.43 39.0391C723.395 41.2461 721.959 43.1406 720.123 44.7227C718.307 46.2852 716.139 47.4961 713.619 48.3555C711.119 49.1953 708.404 49.6152 705.475 49.6152C704.225 49.6152 702.984 49.5371 701.754 49.3809C700.543 49.2246 699.371 49.0098 698.238 48.7363C697.125 48.4629 696.07 48.1406 695.074 47.7695C694.098 47.3789 693.229 46.959 692.467 46.5098V63.1211ZM692.467 38.1309C693.346 38.834 694.273 39.4297 695.25 39.918C696.227 40.4062 697.223 40.8066 698.238 41.1191C699.254 41.4316 700.279 41.666 701.314 41.8223C702.35 41.959 703.355 42.0273 704.332 42.0273C706.324 42.0273 708.092 41.7637 709.635 41.2363C711.197 40.6895 712.506 39.9473 713.561 39.0098C714.635 38.0723 715.455 36.9688 716.021 35.6992C716.588 34.4297 716.871 33.0527 716.871 31.5684C716.871 30.1816 716.588 28.873 716.021 27.6426C715.475 26.4121 714.674 25.3379 713.619 24.4199C712.584 23.4824 711.324 22.75 709.84 22.2227C708.375 21.6758 706.725 21.4023 704.889 21.4023C703.717 21.4023 702.545 21.5195 701.373 21.7539C700.201 21.9688 699.068 22.2812 697.975 22.6914C696.9 23.1016 695.885 23.5996 694.928 24.1855C693.99 24.7715 693.17 25.4258 692.467 26.1484V38.1309ZM732.545 31.5977C732.545 29.2539 733.023 27.0176 733.98 24.8887C734.938 22.7402 736.314 20.8457 738.111 19.2051C739.908 17.5645 742.105 16.2559 744.703 15.2793C747.32 14.3027 750.289 13.8145 753.609 13.8145C756.91 13.8145 759.879 14.3125 762.516 15.3086C765.172 16.2852 767.418 17.6328 769.254 19.3516C771.109 21.0703 772.525 23.0918 773.502 25.416C774.498 27.7402 774.996 30.2305 774.996 32.8867C774.996 33.2188 774.986 33.5801 774.967 33.9707C774.967 34.3418 774.947 34.6836 774.908 34.9961H742.213C742.584 36.0312 743.18 36.9785 744 37.8379C744.84 38.6973 745.885 39.4395 747.135 40.0645C748.385 40.6895 749.83 41.1777 751.471 41.5293C753.111 41.8613 754.928 42.0273 756.92 42.0273C758.912 42.0273 760.895 41.8223 762.867 41.4121C764.84 40.9824 766.725 40.4453 768.521 39.8008L771.451 46.4219C770.318 46.9492 769.166 47.418 767.994 47.8281C766.842 48.2188 765.631 48.5508 764.361 48.8242C763.111 49.0781 761.793 49.2734 760.406 49.4102C759.039 49.5469 757.594 49.6152 756.07 49.6152C752.184 49.6152 748.775 49.1465 745.846 48.209C742.916 47.2715 740.465 45.9922 738.492 44.3711C736.52 42.75 735.035 40.8457 734.039 38.6582C733.043 36.4707 732.545 34.1172 732.545 31.5977ZM765.797 28.2285C765.484 27.2715 764.996 26.3828 764.332 25.5625C763.688 24.7227 762.877 24 761.9 23.3945C760.924 22.7695 759.791 22.2812 758.502 21.9297C757.213 21.5781 755.797 21.4023 754.254 21.4023C752.613 21.4023 751.119 21.5879 749.771 21.959C748.424 22.3301 747.242 22.8281 746.227 23.4531C745.211 24.0781 744.361 24.8008 743.678 25.6211C743.014 26.4414 742.525 27.3105 742.213 28.2285H765.797ZM784.342 14.4297H793.014V19.4102C794.928 17.9844 796.949 16.7539 799.078 15.7188C801.207 14.6836 803.326 13.8926 805.436 13.3457L807.984 21.2852C804.645 21.6172 801.705 22.3691 799.166 23.541C796.646 24.6934 794.596 26.3242 793.014 28.4336V49H784.342V14.4297Z" fill="#3F3030"/>
<path d="M0.503906 3.20898V1.20898H-1.49609V3.20898H0.503906ZM41.4609 3.20898H43.4609V1.20898H41.4609V3.20898ZM41.4609 11.3535V13.3535H43.4609V11.3535H41.4609ZM9.79102 11.3535V9.35352H7.79102V11.3535H9.79102ZM9.79102 23.3359H7.79102V25.3359H9.79102V23.3359ZM36.6855 23.3359H38.6855V21.3359H36.6855V23.3359ZM36.6855 30.9824V32.9824H38.6855V30.9824H36.6855ZM9.79102 30.9824V28.9824H7.79102V30.9824H9.79102ZM9.79102 49V51H11.791V49H9.79102ZM0.503906 49H-1.49609V51H0.503906V49ZM0.503906 5.20898H41.4609V1.20898H0.503906V5.20898ZM39.4609 3.20898V11.3535H43.4609V3.20898H39.4609ZM41.4609 9.35352H9.79102V13.3535H41.4609V9.35352ZM7.79102 11.3535V23.3359H11.791V11.3535H7.79102ZM9.79102 25.3359H36.6855V21.3359H9.79102V25.3359ZM34.6855 23.3359V30.9824H38.6855V23.3359H34.6855ZM36.6855 28.9824H9.79102V32.9824H36.6855V28.9824ZM7.79102 30.9824V49H11.791V30.9824H7.79102ZM9.79102 47H0.503906V51H9.79102V47ZM2.50391 49V3.20898H-1.49609V49H2.50391ZM49.3418 14.4297V12.4297H47.3418V14.4297H49.3418ZM58.0137 14.4297H60.0137V12.4297H58.0137V14.4297ZM58.0137 19.4102H56.0137V23.3938L59.2084 21.0141L58.0137 19.4102ZM70.4355 13.3457L72.3398 12.7344L71.7624 10.9356L69.9336 11.4097L70.4355 13.3457ZM72.9844 21.2852L73.1822 23.2753L75.6452 23.0305L74.8887 20.6738L72.9844 21.2852ZM64.166 23.541L64.9979 25.3598L65.0041 25.3569L64.166 23.541ZM58.0137 28.4336L56.4137 27.2336L56.0137 27.7669V28.4336H58.0137ZM58.0137 49V51H60.0137V49H58.0137ZM49.3418 49H47.3418V51H49.3418V49ZM49.3418 16.4297H58.0137V12.4297H49.3418V16.4297ZM56.0137 14.4297V19.4102H60.0137V14.4297H56.0137ZM59.2084 21.0141C61.0229 19.6625 62.9373 18.4974 64.9527 17.5174L63.2036 13.9201C60.9611 15.0105 58.8325 16.3063 56.8189 17.8062L59.2084 21.0141ZM64.9527 17.5174C66.9724 16.5353 68.967 15.7925 70.9375 15.2817L69.9336 11.4097C67.6853 11.9926 65.4417 12.8319 63.2036 13.9201L64.9527 17.5174ZM68.5313 13.957L71.0801 21.8965L74.8887 20.6738L72.3398 12.7344L68.5313 13.957ZM72.7865 19.295C69.2681 19.6448 66.1051 20.4433 63.3279 21.7251L65.0041 25.3569C67.3051 24.2949 70.021 23.5896 73.1822 23.2753L72.7865 19.295ZM63.3342 21.7222C60.5269 23.0062 58.2063 24.8434 56.4137 27.2336L59.6137 29.6336C60.9851 27.8051 62.7661 26.3806 64.9979 25.3598L63.3342 21.7222ZM56.0137 28.4336V49H60.0137V28.4336H56.0137ZM58.0137 47H49.3418V51H58.0137V47ZM51.3418 49V14.4297H47.3418V49H51.3418ZM78.873 24.7422L77.0619 23.8937L77.0588 23.9005L77.0557 23.9072L78.873 24.7422ZM83.1797 19.0586L81.8716 17.5456L81.8638 17.5525L83.1797 19.0586ZM89.9473 15.2207L89.2816 13.3347L89.2772 13.3363L89.9473 15.2207ZM107.789 15.2207L107.119 17.1051L107.123 17.1067L107.789 15.2207ZM114.557 19.0586L113.241 20.5647L113.249 20.5715L114.557 19.0586ZM118.863 24.7422L117.046 25.5772L117.049 25.5839L117.052 25.5906L118.863 24.7422ZM118.863 38.6875L117.052 37.8391L117.049 37.8458L117.046 37.8525L118.863 38.6875ZM114.557 44.3711L113.249 42.8581L113.241 42.865L114.557 44.3711ZM107.789 48.209L107.123 46.323L107.119 46.3246L107.789 48.209ZM89.9473 48.209L89.2772 50.0934L89.2816 50.095L89.9473 48.209ZM83.1797 44.3711L81.8638 45.8772L81.8716 45.884L83.1797 44.3711ZM78.873 38.6875L77.0557 39.5225L77.0588 39.5292L77.0619 39.5359L78.873 38.6875ZM87.3105 35.6699L85.4782 36.4716L85.4858 36.489L85.4938 36.5062L87.3105 35.6699ZM89.7422 38.9512L88.3982 40.4323L88.4125 40.4453L88.4271 40.458L89.7422 38.9512ZM93.6387 41.207L92.9417 43.0817L92.9561 43.087L92.9705 43.0921L93.6387 41.207ZM104.098 41.207L104.773 43.0894L104.78 43.087L104.787 43.0845L104.098 41.207ZM107.994 38.9512L109.323 40.446L109.325 40.4445L107.994 38.9512ZM110.426 35.6699L108.604 34.8445L108.601 34.851L108.598 34.8576L110.426 35.6699ZM110.426 27.7598L108.593 28.5614L108.599 28.5733L108.604 28.5852L110.426 27.7598ZM107.994 24.4785L106.65 25.9596L106.664 25.9726L106.679 25.9854L107.994 24.4785ZM104.098 22.2227L103.401 24.0973L103.415 24.1026L103.43 24.1078L104.098 22.2227ZM93.6387 22.2227L94.3144 24.105L94.3211 24.1026L94.3279 24.1002L93.6387 22.2227ZM89.7422 24.4785L91.0709 25.9733L91.0726 25.9718L89.7422 24.4785ZM87.3105 27.7598L85.4888 26.9343L85.4835 26.9462L85.4782 26.9581L87.3105 27.7598ZM79.3789 31.7148C79.3789 29.5109 79.8194 27.4728 80.6904 25.5772L77.0557 23.9072C75.9345 26.3475 75.3789 28.9579 75.3789 31.7148H79.3789ZM80.6842 25.5906C81.5786 23.6813 82.8428 22.0088 84.4956 20.5647L81.8638 17.5525C79.8057 19.3506 78.1987 21.4672 77.0619 23.8937L80.6842 25.5906ZM84.4877 20.5715C86.1523 19.1324 88.1845 17.9701 90.6173 17.1051L89.2772 13.3363C86.4366 14.3463 83.9571 15.7426 81.8716 17.5457L84.4877 20.5715ZM90.6129 17.1067C93.0221 16.2564 95.7707 15.8145 98.8828 15.8145V11.8145C95.3934 11.8145 92.1849 12.31 89.2816 13.3347L90.6129 17.1067ZM98.8828 15.8145C101.995 15.8145 104.732 16.2565 107.119 17.1051L108.459 13.3363C105.573 12.3099 102.372 11.8145 98.8828 11.8145V15.8145ZM107.123 17.1067C109.575 17.9718 111.601 19.1324 113.241 20.5647L115.873 17.5525C113.801 15.7426 111.316 14.3446 108.455 13.3347L107.123 17.1067ZM113.249 20.5715C114.916 22.0131 116.174 23.6792 117.046 25.5772L120.681 23.9072C119.561 21.4693 117.947 19.3463 115.865 17.5457L113.249 20.5715ZM117.052 25.5906C117.939 27.4834 118.387 29.5167 118.387 31.7148H122.387C122.387 28.952 121.819 26.3369 120.674 23.8937L117.052 25.5906ZM118.387 31.7148C118.387 33.9129 117.939 35.9463 117.052 37.8391L120.674 39.5359C121.819 37.0928 122.387 34.4777 122.387 31.7148H118.387ZM117.046 37.8525C116.174 39.7505 114.916 41.4166 113.249 42.8582L115.865 45.884C117.947 44.0834 119.561 41.9604 120.681 39.5225L117.046 37.8525ZM113.241 42.865C111.601 44.2973 109.575 45.4578 107.123 46.323L108.455 50.095C111.316 49.0851 113.801 47.6871 115.873 45.8772L113.241 42.865ZM107.119 46.3246C104.732 47.1732 101.995 47.6152 98.8828 47.6152V51.6152C102.372 51.6152 105.573 51.1197 108.459 50.0934L107.119 46.3246ZM98.8828 47.6152C95.7707 47.6152 93.0221 47.1733 90.6129 46.323L89.2816 50.095C92.1849 51.1196 95.3934 51.6152 98.8828 51.6152V47.6152ZM90.6173 46.3246C88.1845 45.4596 86.1523 44.2973 84.4877 42.8582L81.8716 45.884C83.9571 47.6871 86.4366 49.0834 89.2772 50.0934L90.6173 46.3246ZM84.4956 42.865C82.8428 41.4209 81.5786 39.7484 80.6842 37.8391L77.0619 39.5359C78.1987 41.9625 79.8057 44.0791 81.8638 45.8772L84.4956 42.865ZM80.6904 37.8525C79.8194 35.9569 79.3789 33.9188 79.3789 31.7148H75.3789C75.3789 34.4718 75.9345 37.0822 77.0557 39.5225L80.6904 37.8525ZM84.4902 31.7148C84.4902 33.3728 84.8189 34.9646 85.4782 36.4716L89.1429 34.8683C88.7084 33.8753 88.4902 32.8303 88.4902 31.7148H84.4902ZM85.4938 36.5062C86.1785 37.9937 87.1546 39.3038 88.3982 40.4323L91.0862 37.4701C90.2204 36.6845 89.5754 35.8071 89.1273 34.8336L85.4938 36.5062ZM88.4271 40.458C89.7071 41.5751 91.2231 42.4427 92.9417 43.0817L94.3356 39.3324C93.0074 38.8386 91.9257 38.2023 91.0573 37.4443L88.4271 40.458ZM92.9705 43.0921C94.765 43.7281 96.7448 44.0273 98.8828 44.0273V40.0273C97.1145 40.0273 95.5983 39.7797 94.3068 39.3219L92.9705 43.0921ZM98.8828 44.0273C101.02 44.0273 102.994 43.7283 104.773 43.0894L103.422 39.3246C102.155 39.7795 100.652 40.0273 98.8828 40.0273V44.0273ZM104.787 43.0845C106.527 42.4458 108.053 41.575 109.323 40.446L106.665 37.4564C105.826 38.2023 104.754 38.8355 103.408 39.3295L104.787 43.0845ZM109.325 40.4445C110.596 39.3115 111.583 37.9899 112.253 36.4822L108.598 34.8576C108.175 35.8108 107.54 36.6768 106.664 37.4579L109.325 40.4445ZM112.247 36.4954C112.933 34.9833 113.275 33.3832 113.275 31.7148H109.275C109.275 32.8199 109.052 33.8566 108.604 34.8445L112.247 36.4954ZM113.275 31.7148C113.275 30.0465 112.933 28.4464 112.247 26.9343L108.604 28.5852C109.052 29.5731 109.275 30.6098 109.275 31.7148H113.275ZM112.258 26.9581C111.588 25.4256 110.595 24.0942 109.309 22.9717L106.679 25.9854C107.541 26.7378 108.17 27.594 108.593 28.5614L112.258 26.9581ZM109.338 22.9974C108.06 21.8376 106.522 20.9599 104.766 20.3376L103.43 24.1078C104.76 24.5792 105.819 25.2053 106.65 25.9596L109.338 22.9974ZM104.795 20.348C103.008 19.6839 101.027 19.373 98.8828 19.373V23.373C100.645 23.373 102.14 23.6286 103.401 24.0973L104.795 20.348ZM98.8828 19.373C96.7377 19.373 94.7504 19.6841 92.9495 20.3452L94.3279 24.1002C95.6129 23.6284 97.1216 23.373 98.8828 23.373V19.373ZM92.9629 20.3403C91.2284 20.9629 89.6998 21.8377 88.4118 22.9852L91.0726 25.9718C91.9331 25.2052 93.0021 24.5761 94.3144 24.105L92.9629 20.3403ZM88.4135 22.9837C87.1555 24.1019 86.1742 25.4218 85.4888 26.9343L89.1323 28.5852C89.5797 27.5977 90.2195 26.7301 91.0709 25.9733L88.4135 22.9837ZM85.4782 26.9581C84.8189 28.4651 84.4902 30.0568 84.4902 31.7148H88.4902C88.4902 30.5994 88.7084 29.5544 89.1429 28.5614L85.4782 26.9581ZM129.146 14.4297V12.4297H127.146V14.4297H129.146ZM137.818 14.4297H139.818V12.4297H137.818V14.4297ZM137.818 17.3594H135.818V20.7949L138.806 19.0986L137.818 17.3594ZM144.41 14.6055L143.925 12.6652L143.921 12.6663L144.41 14.6055ZM157.916 14.9863L157.259 16.8753L157.266 16.8779L157.274 16.8804L157.916 14.9863ZM167.584 24.127L165.728 24.8725L165.732 24.8821L165.736 24.8917L167.584 24.127ZM168.99 49V51H170.99V49H168.99ZM160.348 49H158.348V51H160.348V49ZM159.527 28.3457L157.64 29.0075L157.645 29.0223L157.651 29.0371L159.527 28.3457ZM157.213 24.5664L155.772 25.9532L155.785 25.967L155.799 25.9806L157.213 24.5664ZM153.551 22.2227L152.835 24.09L152.85 24.0959L152.865 24.1015L153.551 22.2227ZM145.846 21.6953L145.461 19.7327L145.453 19.7342L145.846 21.6953ZM142.945 22.5449L143.648 24.4176L143.658 24.4137L143.668 24.4096L142.945 22.5449ZM140.221 23.8926L141.25 25.6076L141.264 25.5992L141.277 25.5907L140.221 23.8926ZM137.818 25.709L136.444 24.256L135.818 24.8478V25.709H137.818ZM137.818 49V51H139.818V49H137.818ZM129.146 49H127.146V51H129.146V49ZM129.146 16.4297H137.818V12.4297H129.146V16.4297ZM135.818 14.4297V17.3594H139.818V14.4297H135.818ZM138.806 19.0986C140.989 17.8593 143.018 17.0193 144.899 16.5447L143.921 12.6663C141.622 13.2463 139.258 14.2423 136.831 15.6202L138.806 19.0986ZM144.895 16.5458C146.859 16.0549 148.756 15.8145 150.592 15.8145V11.8145C148.404 11.8145 146.18 12.1014 143.925 12.6652L144.895 16.5458ZM150.592 15.8145C153.029 15.8145 155.246 16.1751 157.259 16.8753L158.573 13.0973C156.094 12.2351 153.428 11.8145 150.592 11.8145V15.8145ZM157.274 16.8804C159.269 17.557 160.963 18.5594 162.385 19.8796L165.107 16.9485C163.248 15.2219 161.055 13.9391 158.558 13.0923L157.274 16.8804ZM162.385 19.8796C163.789 21.1831 164.909 22.8332 165.728 24.8725L169.44 23.3814C168.423 20.8504 166.984 18.6919 165.107 16.9485L162.385 19.8796ZM165.736 24.8917C166.554 26.868 166.99 29.2261 166.99 32.0078H170.99C170.99 28.813 170.489 25.9171 169.432 23.3622L165.736 24.8917ZM166.99 32.0078V49H170.99V32.0078H166.99ZM168.99 47H160.348V51H168.99V47ZM162.348 49V33.4141H158.348V49H162.348ZM162.348 33.4141C162.348 31.329 162.047 29.399 161.404 27.6543L157.651 29.0371C158.102 30.2612 158.348 31.7101 158.348 33.4141H162.348ZM161.415 27.6839C160.799 25.9282 159.877 24.4023 158.627 23.1522L155.799 25.9806C156.58 26.7618 157.201 27.7554 157.64 29.0075L161.415 27.6839ZM158.654 23.1796C157.432 21.9097 155.947 20.968 154.236 20.3438L152.865 24.1015C154.045 24.532 155.002 25.1528 155.772 25.9532L158.654 23.1796ZM154.267 20.3553C152.578 19.7076 150.729 19.4023 148.746 19.4023V23.4023C150.318 23.4023 151.672 23.6439 152.835 24.09L154.267 20.3553ZM148.746 19.4023C147.669 19.4023 146.573 19.5145 145.461 19.7327L146.231 23.6579C147.11 23.4855 147.948 23.4023 148.746 23.4023V19.4023ZM145.453 19.7342C144.361 19.9527 143.283 20.2688 142.222 20.6802L143.668 24.4096C144.521 24.0789 145.378 23.8285 146.238 23.6565L145.453 19.7342ZM142.243 20.6723C141.178 21.0717 140.151 21.5802 139.164 22.1945L141.277 25.5907C142.048 25.1112 142.838 24.7213 143.648 24.4176L142.243 20.6723ZM139.192 22.1776C138.192 22.7772 137.275 23.4699 136.444 24.256L139.193 27.1619C139.807 26.5809 140.491 26.0626 141.25 25.6076L139.192 22.1776ZM135.818 25.709V49H139.818V25.709H135.818ZM137.818 47H129.146V51H137.818V47ZM131.146 49V14.4297H127.146V49H131.146ZM184.869 20.9336H186.869V18.9336H184.869V20.9336ZM176.52 20.9336H174.52V22.9336H176.52V20.9336ZM176.52 14.4297V12.4297H174.52V14.4297H176.52ZM184.869 14.4297V16.4297H186.869V14.4297H184.869ZM184.869 3.67773V1.67773H182.869V3.67773H184.869ZM193.541 3.67773H195.541V1.67773H193.541V3.67773ZM193.541 14.4297H191.541V16.4297H193.541V14.4297ZM201.891 14.4297H203.891V12.4297H201.891V14.4297ZM201.891 20.9336V22.9336H203.891V20.9336H201.891ZM193.541 20.9336V18.9336H191.541V20.9336H193.541ZM193.541 49V51H195.541V49H193.541ZM184.869 49H182.869V51H184.869V49ZM184.869 18.9336H176.52V22.9336H184.869V18.9336ZM178.52 20.9336V14.4297H174.52V20.9336H178.52ZM176.52 16.4297H184.869V12.4297H176.52V16.4297ZM186.869 14.4297V3.67773H182.869V14.4297H186.869ZM184.869 5.67773H193.541V1.67773H184.869V5.67773ZM191.541 3.67773V14.4297H195.541V3.67773H191.541ZM193.541 16.4297H201.891V12.4297H193.541V16.4297ZM199.891 14.4297V20.9336H203.891V14.4297H199.891ZM201.891 18.9336H193.541V22.9336H201.891V18.9336ZM191.541 20.9336V49H195.541V20.9336H191.541ZM193.541 47H184.869V51H193.541V47ZM186.869 49V20.9336H182.869V49H186.869ZM208.189 22.457V20.457H206.189V22.457H208.189ZM235.055 22.457H237.055V20.457H235.055V22.457ZM235.055 28.9609V30.9609H237.055V28.9609H235.055ZM208.189 28.9609H206.189V30.9609H208.189V28.9609ZM208.189 24.457H235.055V20.457H208.189V24.457ZM233.055 22.457V28.9609H237.055V22.457H233.055ZM235.055 26.9609H208.189V30.9609H235.055V26.9609ZM210.189 28.9609V22.457H206.189V28.9609H210.189ZM245.602 3.20898V1.20898H243.602V3.20898H245.602ZM284.596 3.20898H286.596V1.20898H284.596V3.20898ZM284.596 11.3535V13.3535H286.596V11.3535H284.596ZM254.889 11.3535V9.35352H252.889V11.3535H254.889ZM254.889 20.4941H252.889V22.4941H254.889V20.4941ZM281.197 20.4941H283.197V18.4941H281.197V20.4941ZM281.197 28.1406V30.1406H283.197V28.1406H281.197ZM254.889 28.1406V26.1406H252.889V28.1406H254.889ZM254.889 40.8848H252.889V42.8848H254.889V40.8848ZM285.211 40.8848H287.211V38.8848H285.211V40.8848ZM285.211 49V51H287.211V49H285.211ZM245.602 49H243.602V51H245.602V49ZM245.602 5.20898H284.596V1.20898H245.602V5.20898ZM282.596 3.20898V11.3535H286.596V3.20898H282.596ZM284.596 9.35352H254.889V13.3535H284.596V9.35352ZM252.889 11.3535V20.4941H256.889V11.3535H252.889ZM254.889 22.4941H281.197V18.4941H254.889V22.4941ZM279.197 20.4941V28.1406H283.197V20.4941H279.197ZM281.197 26.1406H254.889V30.1406H281.197V26.1406ZM252.889 28.1406V40.8848H256.889V28.1406H252.889ZM254.889 42.8848H285.211V38.8848H254.889V42.8848ZM283.211 40.8848V49H287.211V40.8848H283.211ZM285.211 47H245.602V51H285.211V47ZM247.602 49V3.20898H243.602V49H247.602ZM294.439 14.4297V12.4297H292.439V14.4297H294.439ZM303.111 14.4297H305.111V12.4297H303.111V14.4297ZM303.111 17.3594H301.111V20.7949L304.099 19.0986L303.111 17.3594ZM309.703 14.6055L309.218 12.6652L309.214 12.6663L309.703 14.6055ZM323.209 14.9863L322.552 16.8753L322.559 16.8779L322.567 16.8804L323.209 14.9863ZM332.877 24.127L331.021 24.8725L331.025 24.8821L331.029 24.8917L332.877 24.127ZM334.283 49V51H336.283V49H334.283ZM325.641 49H323.641V51H325.641V49ZM324.82 28.3457L322.933 29.0075L322.938 29.0223L322.944 29.0371L324.82 28.3457ZM322.506 24.5664L321.065 25.9532L321.078 25.967L321.092 25.9806L322.506 24.5664ZM318.844 22.2227L318.128 24.09L318.143 24.0959L318.158 24.1015L318.844 22.2227ZM311.139 21.6953L310.754 19.7327L310.746 19.7342L311.139 21.6953ZM308.238 22.5449L308.941 24.4176L308.951 24.4137L308.961 24.4096L308.238 22.5449ZM305.514 23.8926L306.543 25.6076L306.557 25.5992L306.57 25.5907L305.514 23.8926ZM303.111 25.709L301.737 24.256L301.111 24.8478V25.709H303.111ZM303.111 49V51H305.111V49H303.111ZM294.439 49H292.439V51H294.439V49ZM294.439 16.4297H303.111V12.4297H294.439V16.4297ZM301.111 14.4297V17.3594H305.111V14.4297H301.111ZM304.099 19.0986C306.282 17.8593 308.311 17.0193 310.192 16.5447L309.214 12.6663C306.915 13.2463 304.551 14.2423 302.124 15.6202L304.099 19.0986ZM310.188 16.5458C312.152 16.0549 314.049 15.8145 315.885 15.8145V11.8145C313.697 11.8145 311.473 12.1014 309.218 12.6652L310.188 16.5458ZM315.885 15.8145C318.322 15.8145 320.539 16.1751 322.552 16.8753L323.866 13.0973C321.387 12.2351 318.721 11.8145 315.885 11.8145V15.8145ZM322.567 16.8804C324.562 17.557 326.256 18.5594 327.678 19.8796L330.4 16.9485C328.541 15.2219 326.348 13.9391 323.851 13.0923L322.567 16.8804ZM327.678 19.8796C329.082 21.1831 330.202 22.8332 331.021 24.8725L334.733 23.3814C333.716 20.8504 332.277 18.6919 330.4 16.9485L327.678 19.8796ZM331.029 24.8917C331.847 26.868 332.283 29.2261 332.283 32.0078H336.283C336.283 28.813 335.782 25.9171 334.725 23.3622L331.029 24.8917ZM332.283 32.0078V49H336.283V32.0078H332.283ZM334.283 47H325.641V51H334.283V47ZM327.641 49V33.4141H323.641V49H327.641ZM327.641 33.4141C327.641 31.329 327.34 29.399 326.697 27.6543L322.944 29.0371C323.395 30.2612 323.641 31.7101 323.641 33.4141H327.641ZM326.708 27.6839C326.092 25.9282 325.17 24.4023 323.92 23.1522L321.092 25.9806C321.873 26.7618 322.494 27.7554 322.933 29.0075L326.708 27.6839ZM323.947 23.1796C322.725 21.9097 321.24 20.968 319.529 20.3438L318.158 24.1015C319.338 24.532 320.295 25.1528 321.065 25.9532L323.947 23.1796ZM319.56 20.3553C317.871 19.7076 316.022 19.4023 314.039 19.4023V23.4023C315.611 23.4023 316.965 23.6439 318.128 24.09L319.56 20.3553ZM314.039 19.4023C312.962 19.4023 311.866 19.5145 310.754 19.7327L311.524 23.6579C312.403 23.4855 313.241 23.4023 314.039 23.4023V19.4023ZM310.746 19.7342C309.654 19.9527 308.576 20.2688 307.515 20.6802L308.961 24.4096C309.814 24.0789 310.671 23.8285 311.531 23.6565L310.746 19.7342ZM307.536 20.6723C306.471 21.0717 305.444 21.5802 304.457 22.1945L306.57 25.5907C307.341 25.1112 308.131 24.7213 308.941 24.4176L307.536 20.6723ZM304.485 22.1776C303.485 22.7772 302.568 23.4699 301.737 24.256L304.486 27.1619C305.1 26.5809 305.784 26.0626 306.543 25.6076L304.485 22.1776ZM301.111 25.709V49H305.111V25.709H301.111ZM303.111 47H294.439V51H303.111V47ZM296.439 49V14.4297H292.439V49H296.439ZM343.834 24.4199L345.645 25.2692L345.648 25.2631L343.834 24.4199ZM348.111 18.7363L349.416 20.2525L349.417 20.2514L348.111 18.7363ZM354.615 15.1035L355.252 16.9994L355.261 16.9964L354.615 15.1035ZM366.48 14.0488L366.225 16.0324L366.229 16.0329L366.48 14.0488ZM369.996 14.6934L369.519 16.6356L369.527 16.6375L369.996 14.6934ZM373.16 15.6895L372.417 17.5464L372.44 17.5553L372.462 17.5636L373.16 15.6895ZM375.797 16.9199L374.781 18.6427L377.797 20.4213V16.9199H375.797ZM375.797 0.396484V-1.60352H373.797V0.396484H375.797ZM384.469 0.396484H386.469V-1.60352H384.469V0.396484ZM384.469 49V51H386.469V49H384.469ZM375.797 49H373.797V51H375.797V49ZM375.797 45.748H377.797V41.9309L374.658 44.1037L375.797 45.748ZM369.762 48.4727L369.196 46.5544L369.762 48.4727ZM366.041 49.293L365.741 47.3155L365.724 47.3181L365.707 47.321L366.041 49.293ZM354.176 48.3262L353.512 50.2127L353.516 50.2144L354.176 48.3262ZM343.746 39.0977L341.92 39.913L341.924 39.9228L341.929 39.9327L343.746 39.0977ZM352.213 35.7871L350.385 36.5994L350.391 36.6114L350.396 36.6234L352.213 35.7871ZM354.615 39.0391L353.273 40.5215L353.287 40.5347L353.302 40.5477L354.615 39.0391ZM358.395 41.2363L357.695 43.11L357.71 43.1156L357.725 43.1209L358.395 41.2363ZM366.891 41.7051L367.251 43.6723L367.267 43.6694L367.283 43.6662L366.891 41.7051ZM370.26 40.7383L369.558 38.8656L369.546 38.8698L370.26 40.7383ZM373.307 39.2441L372.262 37.5384L372.254 37.5433L372.247 37.5481L373.307 39.2441ZM375.797 37.2812L377.23 38.676L377.797 38.0937V37.2812H375.797ZM375.797 25.2988H377.797V24.3376L377.046 23.7371L375.797 25.2988ZM370.025 22.3105L369.437 24.2221L370.025 22.3105ZM366.949 21.6367L366.651 23.6143L366.669 23.6171L366.687 23.6195L366.949 21.6367ZM358.6 22.2227L359.246 24.1152L359.253 24.1128L359.26 24.1104L358.6 22.2227ZM354.674 24.4199L353.359 22.9131L353.352 22.9191L353.345 22.9251L354.674 24.4199ZM344.281 31.8613C344.281 29.3628 344.749 27.1779 345.645 25.2692L342.023 23.5706C340.848 26.076 340.281 28.8521 340.281 31.8613H344.281ZM345.648 25.2631C346.566 23.288 347.82 21.6248 349.416 20.2525L346.807 17.2201C344.77 18.9729 343.172 21.0988 342.02 23.5768L345.648 25.2631ZM349.417 20.2514C351.04 18.8528 352.976 17.7641 355.252 16.9994L353.978 13.2076C351.255 14.1226 348.855 15.4558 346.806 17.2212L349.417 20.2514ZM355.261 16.9964C357.553 16.2147 360.057 15.8145 362.789 15.8145V11.8145C359.662 11.8145 356.717 12.2736 353.97 13.2106L355.261 16.9964ZM362.789 15.8145C363.956 15.8145 365.1 15.8873 366.225 16.0324L366.736 12.0653C365.439 11.8978 364.123 11.8145 362.789 11.8145V15.8145ZM366.229 16.0329C367.389 16.1803 368.486 16.3818 369.519 16.6356L370.473 12.7511C369.28 12.458 368.033 12.2299 366.732 12.0648L366.229 16.0329ZM369.527 16.6375C370.576 16.8909 371.539 17.1949 372.417 17.5464L373.903 13.8325C372.829 13.4027 371.682 13.0427 370.465 12.7492L369.527 16.6375ZM372.462 17.5636C373.369 17.9016 374.138 18.2637 374.781 18.6427L376.813 15.1972C375.932 14.6777 374.943 14.2195 373.858 13.8153L372.462 17.5636ZM377.797 16.9199V0.396484H373.797V16.9199H377.797ZM375.797 2.39648H384.469V-1.60352H375.797V2.39648ZM382.469 0.396484V49H386.469V0.396484H382.469ZM384.469 47H375.797V51H384.469V47ZM377.797 49V45.748H373.797V49H377.797ZM374.658 44.1037C374.015 44.5492 373.226 44.9905 372.277 45.4203L373.927 49.0641C375.048 48.5564 376.055 48.0016 376.935 47.3924L374.658 44.1037ZM372.277 45.4203C371.333 45.8477 370.307 46.2266 369.196 46.5544L370.328 50.3909C371.6 50.0156 372.8 49.5742 373.927 49.0641L372.277 45.4203ZM369.196 46.5544C368.096 46.879 366.945 47.1332 365.741 47.3155L366.341 51.2704C367.715 51.0621 369.045 50.7695 370.328 50.3909L369.196 46.5544ZM365.707 47.321C364.545 47.5178 363.397 47.6152 362.262 47.6152V51.6152C363.627 51.6152 364.998 51.4979 366.375 51.2649L365.707 47.321ZM362.262 47.6152C359.529 47.6152 357.06 47.2148 354.835 46.438L353.516 50.2144C356.214 51.1563 359.135 51.6152 362.262 51.6152V47.6152ZM354.84 46.4396C352.619 45.6578 350.751 44.572 349.206 43.1985L346.548 46.1882C348.519 47.9397 350.85 49.2758 353.512 50.2127L354.84 46.4396ZM349.206 43.1985C347.658 41.8225 346.446 40.183 345.563 38.2627L341.929 39.9327C343.039 42.3483 344.581 44.4392 346.548 46.1882L349.206 43.1985ZM345.572 38.2824C344.721 36.3762 344.281 34.2456 344.281 31.8613H340.281C340.281 34.7505 340.818 37.4441 341.92 39.913L345.572 38.2824ZM349.393 31.8613C349.393 33.5193 349.721 35.1055 350.385 36.5994L354.041 34.9748C353.611 34.0078 353.393 32.9768 353.393 31.8613H349.393ZM350.396 36.6234C351.079 38.1067 352.044 39.4085 353.273 40.5215L355.958 37.5567C355.116 36.7946 354.48 35.9285 354.03 34.9508L350.396 36.6234ZM353.302 40.5477C354.558 41.6407 356.032 42.4891 357.695 43.11L359.094 39.3626C357.828 38.8898 356.782 38.2734 355.928 37.5305L353.302 40.5477ZM357.725 43.1209C359.457 43.7361 361.348 44.0273 363.375 44.0273V40.0273C361.73 40.0273 360.301 39.7912 359.064 39.3517L357.725 43.1209ZM363.375 44.0273C364.67 44.0273 365.962 43.9086 367.251 43.6723L366.53 39.7379C365.475 39.9313 364.424 40.0273 363.375 40.0273V44.0273ZM367.283 43.6662C368.56 43.4108 369.791 43.0582 370.973 42.6067L369.546 38.8698C368.58 39.2387 367.565 39.5306 366.498 39.7439L367.283 43.6662ZM370.962 42.6109C372.174 42.1566 373.31 41.6006 374.367 40.9401L372.247 37.5481C371.428 38.0596 370.533 38.4996 369.558 38.8656L370.962 42.6109ZM374.351 40.9498C375.434 40.2865 376.399 39.5307 377.23 38.676L374.363 35.8865C373.789 36.4771 373.093 37.0299 372.262 37.5384L374.351 40.9498ZM377.797 37.2812V25.2988H373.797V37.2812H377.797ZM377.046 23.7371C376.061 22.9487 375.014 22.2761 373.908 21.7229L372.119 25.3006C372.966 25.7239 373.775 26.2427 374.547 26.8606L377.046 23.7371ZM373.908 21.7229C372.836 21.1867 371.737 20.7448 370.614 20.399L369.437 24.2221C370.345 24.5013 371.239 24.8602 372.119 25.3006L373.908 21.7229ZM370.614 20.399C369.493 20.0543 368.359 19.8055 367.211 19.6539L366.687 23.6195C367.61 23.7414 368.526 23.9418 369.437 24.2221L370.614 20.399ZM367.248 19.6591C366.121 19.489 365.015 19.4023 363.932 19.4023V23.4023C364.801 23.4023 365.707 23.4719 366.651 23.6143L367.248 19.6591ZM363.932 19.4023C361.759 19.4023 359.752 19.7004 357.939 20.3349L359.26 24.1104C360.572 23.6512 362.12 23.4023 363.932 23.4023V19.4023ZM357.953 20.3301C356.199 20.9295 354.655 21.7821 353.359 22.9131L355.989 25.9268C356.841 25.1827 357.914 24.5705 359.246 24.1152L357.953 20.3301ZM353.345 22.9251C352.081 24.0484 351.1 25.3826 350.416 26.9156L354.069 28.5454C354.518 27.5392 355.157 26.6664 356.003 25.9147L353.345 22.9251ZM350.416 26.9156C349.727 28.4586 349.393 30.1155 349.393 31.8613H353.393C353.393 30.6384 353.624 29.5414 354.069 28.5454L350.416 26.9156ZM416.109 3.20898V1.20898H414.109V3.20898H416.109ZM454.635 9.33203L453.353 10.8674L453.36 10.8732L453.367 10.8788L454.635 9.33203ZM459.938 16.4805L458.087 17.2387L458.09 17.2465L458.093 17.2543L459.938 16.4805ZM459.967 35.1426L461.817 35.9008L461.819 35.8964L459.967 35.1426ZM454.693 42.4668L456.004 43.9774L456.011 43.9712L454.693 42.4668ZM445.729 47.3008L446.336 49.2062L446.346 49.2032L445.729 47.3008ZM432.955 49.0293L432.952 51.0293H432.955V49.0293ZM416.109 49H414.109V50.9965L416.106 51L416.109 49ZM442.477 39.918L443.114 41.8136L443.122 41.8109L443.13 41.8082L442.477 39.918ZM447.691 36.8711L446.329 35.4069L446.319 35.4165L447.691 36.8711ZM450.855 32.125L448.985 31.4163L450.855 32.125ZM450.855 19.8496L448.99 20.5716L448.993 20.5784L450.855 19.8496ZM447.691 15.25L446.341 16.7252L446.352 16.7351L446.363 16.7448L447.691 15.25ZM442.477 12.3203L441.855 14.2212L442.477 12.3203ZM425.396 11.2949V9.29492H423.396V11.2949H425.396ZM425.396 40.9727H423.396V42.9727H425.396V40.9727ZM416.109 5.20898H432.896V1.20898H416.109V5.20898ZM432.896 5.20898C437.663 5.20898 441.724 5.72259 445.11 6.7109L446.23 2.87113C442.39 1.75006 437.935 1.20898 432.896 1.20898V5.20898ZM445.11 6.7109C448.516 7.7052 451.243 9.10589 453.353 10.8674L455.916 7.79663C453.3 5.61286 450.05 3.98621 446.23 2.87113L445.11 6.7109ZM453.367 10.8788C455.497 12.6245 457.062 14.7377 458.087 17.2387L461.788 15.7222C460.508 12.5982 458.538 9.94577 455.903 7.78525L453.367 10.8788ZM458.093 17.2543C459.148 19.7674 459.695 22.6431 459.695 25.9141H463.695C463.695 22.1929 463.071 18.7795 461.782 15.7067L458.093 17.2543ZM459.695 25.9141C459.695 28.9983 459.161 31.816 458.114 34.3888L461.819 35.8964C463.077 32.8051 463.695 29.4704 463.695 25.9141H459.695ZM458.116 34.3843C457.085 36.9004 455.514 39.0891 453.375 40.9624L456.011 43.9712C458.599 41.7039 460.544 39.0098 461.817 35.9008L458.116 34.3843ZM453.383 40.9562C451.26 42.7978 448.523 44.2919 445.112 45.3983L446.346 49.2032C450.161 47.9659 453.4 46.2373 456.004 43.9774L453.383 40.9562ZM445.121 45.3953C441.752 46.4698 437.708 47.0293 432.955 47.0293V51.0293C438.007 51.0293 442.479 50.4365 446.336 49.2062L445.121 45.3953ZM432.959 47.0293L416.113 47L416.106 51L432.952 51.0293L432.959 47.0293ZM418.109 49V3.20898H414.109V49H418.109ZM435.182 42.9727C438.119 42.9727 440.774 42.601 443.114 41.8136L441.839 38.0224C440 38.6412 437.792 38.9727 435.182 38.9727V42.9727ZM443.13 41.8082C445.445 41.0076 447.441 39.8574 449.064 38.3257L446.319 35.4165C445.169 36.5019 443.687 37.383 441.823 38.0278L443.13 41.8082ZM449.054 38.3352C450.693 36.8102 451.917 34.9669 452.726 32.8337L448.985 31.4163C448.387 32.994 447.503 34.3148 446.329 35.407L449.054 38.3352ZM452.726 32.8337C453.527 30.7202 453.91 28.4051 453.91 25.9141H449.91C449.91 27.9933 449.591 29.8188 448.985 31.4163L452.726 32.8337ZM453.91 25.9141C453.91 23.4589 453.526 21.1847 452.718 19.1208L448.993 20.5784C449.592 22.1083 449.91 23.8771 449.91 25.9141H453.91ZM452.721 19.1276C451.907 17.0254 450.673 15.224 449.02 13.7552L446.363 16.7448C447.523 17.776 448.398 19.041 448.99 20.5716L452.721 19.1276ZM449.042 13.7748C447.413 12.2833 445.413 11.1766 443.098 10.4194L441.855 14.2212C443.72 14.8312 445.197 15.6776 446.341 16.7252L449.042 13.7748ZM443.098 10.4194C440.763 9.6556 438.114 9.29492 435.182 9.29492V13.2949C437.796 13.2949 440.01 13.6178 441.855 14.2212L443.098 10.4194ZM435.182 9.29492H425.396V13.2949H435.182V9.29492ZM423.396 11.2949V40.9727H427.396V11.2949H423.396ZM425.396 42.9727H435.182V38.9727H425.396V42.9727ZM469.723 24.8887L471.547 25.7087L471.55 25.7025L469.723 24.8887ZM480.445 15.2793L479.746 13.4055L479.742 13.4072L480.445 15.2793ZM498.258 15.3086L497.551 17.1795L497.559 17.1827L497.568 17.1858L498.258 15.3086ZM504.996 19.3516L503.629 20.8116L503.637 20.8188L504.996 19.3516ZM509.244 25.416L507.4 26.1907L507.403 26.1973L507.406 26.2039L509.244 25.416ZM510.709 33.9707L508.711 33.8708L508.709 33.9207V33.9707H510.709ZM510.65 34.9961V36.9961H512.416L512.635 35.2442L510.65 34.9961ZM477.955 34.9961V32.9961H475.113L476.072 35.671L477.955 34.9961ZM479.742 37.8379L478.295 39.2188L478.304 39.2273L478.312 39.2358L479.742 37.8379ZM487.213 41.5293L486.794 43.4849L486.805 43.4873L486.816 43.4896L487.213 41.5293ZM498.609 41.4121L499.017 43.3702L499.026 43.3683L499.035 43.3663L498.609 41.4121ZM504.264 39.8008L506.093 38.9915L505.34 37.29L503.588 37.9182L504.264 39.8008ZM507.193 46.4219L508.037 48.235L509.816 47.407L509.022 45.6126L507.193 46.4219ZM503.736 47.8281L504.378 49.7223L504.388 49.7191L504.397 49.7158L503.736 47.8281ZM500.104 48.8242L500.502 50.7842L500.513 50.7819L500.525 50.7794L500.104 48.8242ZM496.148 49.4102L495.952 47.4198L495.949 47.4201L496.148 49.4102ZM501.539 28.2285V30.2285H504.296L503.44 27.6077L501.539 28.2285ZM500.074 25.5625L498.488 26.7801L498.503 26.8007L498.52 26.8209L500.074 25.5625ZM497.643 23.3945L496.564 25.0791L496.577 25.0868L496.589 25.0943L497.643 23.3945ZM479.42 25.6211L477.883 24.3407L477.874 24.3516L477.865 24.3627L479.42 25.6211ZM477.955 28.2285L476.062 27.584L475.162 30.2285H477.955V28.2285ZM470.287 31.5977C470.287 29.5354 470.706 27.5787 471.547 25.7087L467.899 24.0686C466.825 26.4565 466.287 28.9724 466.287 31.5977H470.287ZM471.55 25.7025C472.391 23.8144 473.601 22.1435 475.202 20.682L472.505 17.7281C470.512 19.5479 468.969 21.666 467.896 24.0749L471.55 25.7025ZM475.202 20.682C476.787 19.2353 478.756 18.0509 481.149 17.1514L479.742 13.4072C476.939 14.4608 474.514 15.8936 472.505 17.7281L475.202 20.682ZM481.144 17.1531C483.5 16.2741 486.226 15.8145 489.352 15.8145V11.8145C485.836 11.8145 482.625 12.3314 479.746 13.4055L481.144 17.1531ZM489.352 15.8145C492.451 15.8145 495.175 16.282 497.551 17.1795L498.965 13.4376C496.067 12.343 492.853 11.8145 489.352 11.8145V15.8145ZM497.568 17.1858C500.004 18.0815 502.012 19.2974 503.629 20.8116L506.363 17.8915C504.309 15.9683 501.824 14.4888 498.948 13.4314L497.568 17.1858ZM503.637 20.8188C505.284 22.3445 506.534 24.1301 507.4 26.1907L511.088 24.6413C510.001 22.0535 508.419 19.7961 506.355 17.8843L503.637 20.8188ZM507.406 26.2039C508.29 28.2666 508.738 30.4874 508.738 32.8867H512.738C512.738 29.9735 512.191 27.2138 511.082 24.6282L507.406 26.2039ZM508.738 32.8867C508.738 33.1802 508.73 33.5078 508.711 33.8708L512.706 34.0706C512.727 33.6523 512.738 33.2573 512.738 32.8867H508.738ZM508.709 33.9707C508.709 34.273 508.693 34.5308 508.666 34.748L512.635 35.2442C512.686 34.8364 512.709 34.4106 512.709 33.9707H508.709ZM510.65 32.9961H477.955V36.9961H510.65V32.9961ZM476.072 35.671C476.545 36.99 477.298 38.1737 478.295 39.2188L481.189 36.4569C480.546 35.7834 480.107 35.0725 479.838 34.3212L476.072 35.671ZM478.312 39.2358C479.33 40.278 480.565 41.1446 481.983 41.8533L483.771 38.2756C482.689 37.7343 481.834 37.1166 481.173 36.44L478.312 39.2358ZM481.983 41.8533C483.41 42.567 485.02 43.1048 486.794 43.4849L487.632 39.5737C486.124 39.2506 484.844 38.8119 483.771 38.2756L481.983 41.8533ZM486.816 43.4896C488.609 43.8524 490.561 44.0273 492.662 44.0273V40.0273C490.779 40.0273 489.098 39.8702 487.61 39.569L486.816 43.4896ZM492.662 44.0273C494.793 44.0273 496.911 43.8079 499.017 43.3702L498.202 39.454C496.362 39.8366 494.516 40.0273 492.662 40.0273V44.0273ZM499.035 43.3663C501.088 42.9192 503.056 42.3587 504.939 41.6833L503.588 37.9182C501.878 38.5319 500.077 39.0456 498.184 39.4579L499.035 43.3663ZM502.435 40.6101L505.364 47.2311L509.022 45.6126L506.093 38.9915L502.435 40.6101ZM506.349 44.6087C505.276 45.1084 504.185 45.5522 503.076 45.9404L504.397 49.7158C505.632 49.2837 506.845 48.7901 508.037 48.235L506.349 44.6087ZM503.094 45.934C502.019 46.2985 500.882 46.6107 499.682 46.8691L500.525 50.7794C501.864 50.4909 503.149 50.139 504.378 49.7223L503.094 45.934ZM499.705 46.8642C498.528 47.1034 497.277 47.2892 495.952 47.4198L496.345 51.4005C497.793 51.2577 499.179 51.0528 500.502 50.7842L499.705 46.8642ZM495.949 47.4201C494.655 47.5495 493.277 47.6152 491.812 47.6152V51.6152C493.395 51.6152 494.907 51.5442 496.347 51.4002L495.949 47.4201ZM491.812 47.6152C488.081 47.6152 484.886 47.1645 482.197 46.3041L480.978 50.1138C484.149 51.1285 487.771 51.6152 491.812 51.6152V47.6152ZM482.197 46.3041C479.461 45.4283 477.246 44.2572 475.504 42.8259L472.965 45.9163C475.168 47.7271 477.856 49.1146 480.978 50.1138L482.197 46.3041ZM475.504 42.8259C473.752 41.3862 472.463 39.7221 471.601 37.8294L467.961 39.487C469.091 41.9693 470.771 44.1138 472.965 45.9163L475.504 42.8259ZM471.601 37.8294C470.73 35.9147 470.287 33.8453 470.287 31.5977H466.287C466.287 34.389 466.841 37.0268 467.961 39.487L471.601 37.8294ZM503.44 27.6077C503.048 26.4077 502.439 25.3047 501.629 24.3041L498.52 26.8209C499.038 27.4609 499.405 28.1353 499.638 28.8493L503.44 27.6077ZM501.661 24.3449C500.857 23.2977 499.861 22.4165 498.696 21.6947L496.589 25.0943C497.378 25.5835 498.002 26.1476 498.488 26.7801L501.661 24.3449ZM498.721 21.71C497.55 20.9607 496.226 20.397 494.77 20.0002L493.718 23.8592C494.841 24.1655 495.782 24.5784 496.564 25.0791L498.721 21.71ZM494.77 20.0002C493.286 19.5953 491.69 19.4023 489.996 19.4023V23.4023C491.388 23.4023 492.624 23.561 493.718 23.8592L494.77 20.0002ZM489.996 19.4023C488.206 19.4023 486.53 19.6046 484.983 20.0308L486.045 23.8872C487.192 23.5712 488.505 23.4023 489.996 23.4023V19.4023ZM484.983 20.0308C483.483 20.4436 482.122 21.0105 480.921 21.7498L483.017 25.1564C483.847 24.6458 484.849 24.2165 486.045 23.8872L484.983 20.0308ZM480.921 21.7498C479.742 22.4753 478.721 23.3357 477.883 24.3407L480.956 26.9015C481.486 26.2659 482.165 25.681 483.017 25.1564L480.921 21.7498ZM477.865 24.3627C477.066 25.3499 476.457 26.4241 476.062 27.584L479.848 28.873C480.079 28.197 480.445 27.5329 480.974 26.8795L477.865 24.3627ZM477.955 30.2285H501.539V26.2285H477.955V30.2285ZM515.309 14.4004V12.4004H512.149L513.501 15.256L515.309 14.4004ZM525.357 14.4004L527.193 13.6066L526.672 12.4004H525.357V14.4004ZM534.352 35.2012L536.207 34.4552L536.198 34.4312L536.187 34.4074L534.352 35.2012ZM536.695 41.0312L534.84 41.7772L536.695 46.3932L538.551 41.7772L536.695 41.0312ZM539.039 35.2012L537.203 34.4074L537.193 34.4312L537.183 34.4552L539.039 35.2012ZM548.033 14.4004V12.4004H546.719L546.197 13.6066L548.033 14.4004ZM558.082 14.4004L559.89 15.256L561.241 12.4004H558.082V14.4004ZM541.705 49V51H542.971L543.513 49.8556L541.705 49ZM531.686 49L529.878 49.8556L530.419 51H531.686V49ZM515.309 16.4004H525.357V12.4004H515.309V16.4004ZM523.522 15.1942L532.516 35.9949L536.187 34.4074L527.193 13.6066L523.522 15.1942ZM532.496 35.9472L534.84 41.7772L538.551 40.2853L536.207 34.4552L532.496 35.9472ZM538.551 41.7772L540.895 35.9472L537.183 34.4552L534.84 40.2853L538.551 41.7772ZM540.875 35.9949L549.869 15.1942L546.197 13.6066L537.203 34.4074L540.875 35.9949ZM548.033 16.4004H558.082V12.4004H548.033V16.4004ZM556.274 13.5447L539.897 48.1444L543.513 49.8556L559.89 15.256L556.274 13.5447ZM541.705 47H531.686V51H541.705V47ZM533.493 48.1444L517.116 13.5447L513.501 15.256L529.878 49.8556L533.493 48.1444ZM563.941 24.8887L565.766 25.7087L565.768 25.7025L563.941 24.8887ZM574.664 15.2793L573.965 13.4055L573.96 13.4072L574.664 15.2793ZM592.477 15.3086L591.77 17.1795L591.778 17.1827L591.786 17.1858L592.477 15.3086ZM599.215 19.3516L597.848 20.8116L597.856 20.8188L599.215 19.3516ZM603.463 25.416L601.619 26.1907L601.622 26.1973L601.625 26.2039L603.463 25.416ZM604.928 33.9707L602.93 33.8708L602.928 33.9207V33.9707H604.928ZM604.869 34.9961V36.9961H606.635L606.854 35.2442L604.869 34.9961ZM572.174 34.9961V32.9961H569.332L570.291 35.671L572.174 34.9961ZM573.961 37.8379L572.514 39.2188L572.522 39.2273L572.531 39.2358L573.961 37.8379ZM581.432 41.5293L581.013 43.4849L581.024 43.4873L581.035 43.4896L581.432 41.5293ZM592.828 41.4121L593.235 43.3702L593.245 43.3683L593.254 43.3663L592.828 41.4121ZM598.482 39.8008L600.311 38.9915L599.559 37.29L597.807 37.9182L598.482 39.8008ZM601.412 46.4219L602.256 48.235L604.035 47.407L603.241 45.6126L601.412 46.4219ZM597.955 47.8281L598.597 49.7223L598.606 49.7191L598.616 49.7158L597.955 47.8281ZM594.322 48.8242L594.72 50.7842L594.732 50.7819L594.743 50.7794L594.322 48.8242ZM590.367 49.4102L590.171 47.4198L590.168 47.4201L590.367 49.4102ZM595.758 28.2285V30.2285H598.515L597.659 27.6077L595.758 28.2285ZM594.293 25.5625L592.706 26.7801L592.722 26.8007L592.738 26.8209L594.293 25.5625ZM591.861 23.3945L590.783 25.0791L590.795 25.0868L590.807 25.0943L591.861 23.3945ZM573.639 25.6211L572.102 24.3407L572.093 24.3516L572.084 24.3627L573.639 25.6211ZM572.174 28.2285L570.281 27.584L569.38 30.2285H572.174V28.2285ZM564.506 31.5977C564.506 29.5354 564.925 27.5787 565.766 25.7087L562.117 24.0686C561.044 26.4565 560.506 28.9724 560.506 31.5977H564.506ZM565.768 25.7025C566.609 23.8144 567.82 22.1435 569.421 20.682L566.724 17.7281C564.731 19.5479 563.187 21.666 562.114 24.0749L565.768 25.7025ZM569.421 20.682C571.005 19.2353 572.975 18.0509 575.368 17.1514L573.96 13.4072C571.158 14.4608 568.733 15.8936 566.724 17.7281L569.421 20.682ZM575.363 17.1531C577.719 16.2741 580.445 15.8145 583.57 15.8145V11.8145C580.055 11.8145 576.844 12.3314 573.965 13.4055L575.363 17.1531ZM583.57 15.8145C586.67 15.8145 589.394 16.282 591.77 17.1795L593.183 13.4376C590.286 12.343 587.072 11.8145 583.57 11.8145V15.8145ZM591.786 17.1858C594.223 18.0815 596.23 19.2974 597.848 20.8116L600.582 17.8915C598.527 15.9683 596.043 14.4888 593.167 13.4314L591.786 17.1858ZM597.856 20.8188C599.503 22.3445 600.753 24.1301 601.619 26.1907L605.307 24.6413C604.219 22.0535 602.638 19.7961 600.574 17.8843L597.856 20.8188ZM601.625 26.2039C602.509 28.2666 602.957 30.4874 602.957 32.8867H606.957C606.957 29.9735 606.409 27.2138 605.301 24.6282L601.625 26.2039ZM602.957 32.8867C602.957 33.1802 602.948 33.5078 602.93 33.8708L606.925 34.0706C606.946 33.6523 606.957 33.2573 606.957 32.8867H602.957ZM602.928 33.9707C602.928 34.273 602.912 34.5308 602.885 34.748L606.854 35.2442C606.905 34.8364 606.928 34.4106 606.928 33.9707H602.928ZM604.869 32.9961H572.174V36.9961H604.869V32.9961ZM570.291 35.671C570.764 36.99 571.517 38.1737 572.514 39.2188L575.408 36.4569C574.765 35.7834 574.326 35.0725 574.057 34.3212L570.291 35.671ZM572.531 39.2358C573.549 40.278 574.784 41.1446 576.201 41.8533L577.99 38.2756C576.907 37.7343 576.052 37.1166 575.391 36.44L572.531 39.2358ZM576.201 41.8533C577.629 42.567 579.239 43.1048 581.013 43.4849L581.851 39.5737C580.343 39.2506 579.063 38.8119 577.99 38.2756L576.201 41.8533ZM581.035 43.4896C582.828 43.8524 584.78 44.0273 586.881 44.0273V40.0273C584.998 40.0273 583.317 39.8702 581.828 39.569L581.035 43.4896ZM586.881 44.0273C589.011 44.0273 591.13 43.8079 593.235 43.3702L592.421 39.454C590.581 39.8366 588.735 40.0273 586.881 40.0273V44.0273ZM593.254 43.3663C595.306 42.9192 597.275 42.3587 599.158 41.6833L597.807 37.9182C596.096 38.5319 594.295 39.0456 592.402 39.4579L593.254 43.3663ZM596.653 40.6101L599.583 47.2311L603.241 45.6126L600.311 38.9915L596.653 40.6101ZM600.568 44.6087C599.495 45.1084 598.404 45.5522 597.294 45.9404L598.616 49.7158C599.85 49.2837 601.064 48.7901 602.256 48.235L600.568 44.6087ZM597.313 45.934C596.238 46.2985 595.101 46.6107 593.901 46.8691L594.743 50.7794C596.083 50.4909 597.368 50.139 598.597 49.7223L597.313 45.934ZM593.924 46.8642C592.747 47.1034 591.496 47.2892 590.171 47.4198L590.563 51.4005C592.012 51.2577 593.398 51.0528 594.72 50.7842L593.924 46.8642ZM590.168 47.4201C588.874 47.5495 587.495 47.6152 586.031 47.6152V51.6152C587.614 51.6152 589.126 51.5442 590.566 51.4002L590.168 47.4201ZM586.031 47.6152C582.3 47.6152 579.105 47.1645 576.416 46.3041L575.197 50.1138C578.368 51.1285 581.99 51.6152 586.031 51.6152V47.6152ZM576.416 46.3041C573.679 45.4283 571.465 44.2572 569.723 42.8259L567.183 45.9163C569.387 47.7271 572.075 49.1146 575.197 50.1138L576.416 46.3041ZM569.723 42.8259C567.971 41.3862 566.682 39.7221 565.82 37.8294L562.18 39.487C563.31 41.9693 564.99 44.1138 567.183 45.9163L569.723 42.8259ZM565.82 37.8294C564.948 35.9147 564.506 33.8453 564.506 31.5977H560.506C560.506 34.389 561.06 37.0268 562.18 39.487L565.82 37.8294ZM597.659 27.6077C597.267 26.4077 596.657 25.3047 595.847 24.3041L592.738 26.8209C593.257 27.4609 593.623 28.1353 593.857 28.8493L597.659 27.6077ZM595.88 24.3449C595.076 23.2977 594.079 22.4165 592.915 21.6947L590.807 25.0943C591.596 25.5835 592.221 26.1476 592.706 26.7801L595.88 24.3449ZM592.939 21.71C591.769 20.9607 590.444 20.397 588.989 20.0002L587.937 23.8592C589.06 24.1655 590.001 24.5784 590.783 25.0791L592.939 21.71ZM588.989 20.0002C587.504 19.5953 585.909 19.4023 584.215 19.4023V23.4023C585.607 23.4023 586.843 23.561 587.937 23.8592L588.989 20.0002ZM584.215 19.4023C582.425 19.4023 580.749 19.6046 579.201 20.0308L580.263 23.8872C581.411 23.5712 582.723 23.4023 584.215 23.4023V19.4023ZM579.201 20.0308C577.702 20.4436 576.341 21.0105 575.139 21.7498L577.236 25.1564C578.066 24.6458 579.067 24.2165 580.263 23.8872L579.201 20.0308ZM575.139 21.7498C573.96 22.4753 572.94 23.3357 572.102 24.3407L575.175 26.9015C575.705 26.2659 576.383 25.681 577.236 25.1564L575.139 21.7498ZM572.084 24.3627C571.285 25.3499 570.675 26.4241 570.281 27.584L574.067 28.873C574.297 28.197 574.664 27.5329 575.193 26.8795L572.084 24.3627ZM572.174 30.2285H595.758V26.2285H572.174V30.2285ZM614.537 0.396484V-1.60352H612.537V0.396484H614.537ZM623.209 0.396484H625.209V-1.60352H623.209V0.396484ZM623.209 49V51H625.209V49H623.209ZM614.537 49H612.537V51H614.537V49ZM614.537 2.39648H623.209V-1.60352H614.537V2.39648ZM621.209 0.396484V49H625.209V0.396484H621.209ZM623.209 47H614.537V51H623.209V47ZM616.537 49V0.396484H612.537V49H616.537ZM633.756 24.7422L631.945 23.8937L631.942 23.9005L631.939 23.9072L633.756 24.7422ZM638.062 19.0586L636.754 17.5456L636.747 17.5525L638.062 19.0586ZM644.83 15.2207L644.164 13.3347L644.16 13.3363L644.83 15.2207ZM662.672 15.2207L662.002 17.1051L662.006 17.1067L662.672 15.2207ZM669.439 19.0586L668.124 20.5647L668.131 20.5715L669.439 19.0586ZM673.746 24.7422L671.929 25.5772L671.932 25.5839L671.935 25.5906L673.746 24.7422ZM673.746 38.6875L671.935 37.8391L671.932 37.8458L671.929 37.8525L673.746 38.6875ZM669.439 44.3711L668.131 42.8581L668.124 42.865L669.439 44.3711ZM662.672 48.209L662.006 46.323L662.002 46.3246L662.672 48.209ZM644.83 48.209L644.16 50.0934L644.164 50.095L644.83 48.209ZM638.062 44.3711L636.747 45.8772L636.754 45.884L638.062 44.3711ZM633.756 38.6875L631.939 39.5225L631.942 39.5292L631.945 39.5359L633.756 38.6875ZM642.193 35.6699L640.361 36.4716L640.369 36.489L640.377 36.5062L642.193 35.6699ZM644.625 38.9512L643.281 40.4323L643.295 40.4453L643.31 40.458L644.625 38.9512ZM648.521 41.207L647.825 43.0817L647.839 43.087L647.853 43.0921L648.521 41.207ZM658.98 41.207L659.656 43.0894L659.663 43.087L659.67 43.0845L658.98 41.207ZM662.877 38.9512L664.206 40.446L664.207 40.4445L662.877 38.9512ZM665.309 35.6699L663.487 34.8445L663.484 34.851L663.481 34.8576L665.309 35.6699ZM665.309 27.7598L663.476 28.5614L663.482 28.5733L663.487 28.5852L665.309 27.7598ZM662.877 24.4785L661.533 25.9596L661.547 25.9726L661.562 25.9854L662.877 24.4785ZM658.98 22.2227L658.283 24.0973L658.298 24.1026L658.312 24.1078L658.98 22.2227ZM648.521 22.2227L649.197 24.105L649.204 24.1026L649.211 24.1002L648.521 22.2227ZM644.625 24.4785L645.954 25.9733L645.955 25.9718L644.625 24.4785ZM642.193 27.7598L640.372 26.9343L640.366 26.9462L640.361 26.9581L642.193 27.7598ZM634.262 31.7148C634.262 29.5109 634.702 27.4728 635.573 25.5772L631.939 23.9072C630.817 26.3475 630.262 28.9579 630.262 31.7148H634.262ZM635.567 25.5906C636.461 23.6813 637.726 22.0088 639.378 20.5647L636.747 17.5525C634.688 19.3506 633.082 21.4672 631.945 23.8937L635.567 25.5906ZM639.371 20.5715C641.035 19.1324 643.067 17.9701 645.5 17.1051L644.16 13.3363C641.319 14.3463 638.84 15.7426 636.754 17.5457L639.371 20.5715ZM645.496 17.1067C647.905 16.2564 650.653 15.8145 653.766 15.8145V11.8145C650.276 11.8145 647.068 12.31 644.164 13.3347L645.496 17.1067ZM653.766 15.8145C656.878 15.8145 659.615 16.2565 662.002 17.1051L663.342 13.3363C660.455 12.3099 657.255 11.8145 653.766 11.8145V15.8145ZM662.006 17.1067C664.458 17.9718 666.484 19.1324 668.124 20.5647L670.755 17.5525C668.684 15.7426 666.199 14.3446 663.338 13.3347L662.006 17.1067ZM668.131 20.5715C669.799 22.0131 671.057 23.6792 671.929 25.5772L675.563 23.9072C674.443 21.4693 672.83 19.3463 670.748 17.5457L668.131 20.5715ZM671.935 25.5906C672.822 27.4834 673.27 29.5167 673.27 31.7148H677.27C677.27 28.952 676.702 26.3369 675.557 23.8937L671.935 25.5906ZM673.27 31.7148C673.27 33.9129 672.822 35.9463 671.935 37.8391L675.557 39.5359C676.702 37.0928 677.27 34.4777 677.27 31.7148H673.27ZM671.929 37.8525C671.057 39.7505 669.799 41.4166 668.131 42.8582L670.748 45.884C672.83 44.0834 674.443 41.9604 675.563 39.5225L671.929 37.8525ZM668.124 42.865C666.484 44.2973 664.458 45.4578 662.006 46.323L663.338 50.095C666.199 49.0851 668.684 47.6871 670.755 45.8772L668.124 42.865ZM662.002 46.3246C659.615 47.1732 656.878 47.6152 653.766 47.6152V51.6152C657.255 51.6152 660.455 51.1197 663.342 50.0934L662.002 46.3246ZM653.766 47.6152C650.653 47.6152 647.905 47.1733 645.496 46.323L644.164 50.095C647.068 51.1196 650.276 51.6152 653.766 51.6152V47.6152ZM645.5 46.3246C643.067 45.4596 641.035 44.2973 639.371 42.8582L636.754 45.884C638.84 47.6871 641.319 49.0834 644.16 50.0934L645.5 46.3246ZM639.378 42.865C637.726 41.4209 636.461 39.7484 635.567 37.8391L631.945 39.5359C633.082 41.9625 634.688 44.0791 636.747 45.8772L639.378 42.865ZM635.573 37.8525C634.702 35.9569 634.262 33.9188 634.262 31.7148H630.262C630.262 34.4718 630.817 37.0822 631.939 39.5225L635.573 37.8525ZM639.373 31.7148C639.373 33.3728 639.702 34.9646 640.361 36.4716L644.026 34.8683C643.591 33.8753 643.373 32.8303 643.373 31.7148H639.373ZM640.377 36.5062C641.061 37.9937 642.037 39.3038 643.281 40.4323L645.969 37.4701C645.103 36.6845 644.458 35.8071 644.01 34.8336L640.377 36.5062ZM643.31 40.458C644.59 41.5751 646.106 42.4427 647.825 43.0817L649.218 39.3324C647.89 38.8386 646.809 38.2023 645.94 37.4443L643.31 40.458ZM647.853 43.0921C649.648 43.7281 651.628 44.0273 653.766 44.0273V40.0273C651.997 40.0273 650.481 39.7797 649.19 39.3219L647.853 43.0921ZM653.766 44.0273C655.903 44.0273 657.876 43.7283 659.656 43.0894L658.305 39.3246C657.038 39.7795 655.535 40.0273 653.766 40.0273V44.0273ZM659.67 43.0845C661.41 42.4458 662.936 41.575 664.206 40.446L661.548 37.4564C660.709 38.2023 659.637 38.8355 658.291 39.3295L659.67 43.0845ZM664.207 40.4445C665.479 39.3115 666.466 37.9899 667.136 36.4822L663.481 34.8576C663.057 35.8108 662.423 36.6768 661.547 37.4579L664.207 40.4445ZM667.13 36.4954C667.815 34.9833 668.158 33.3832 668.158 31.7148H664.158C664.158 32.8199 663.935 33.8566 663.487 34.8445L667.13 36.4954ZM668.158 31.7148C668.158 30.0465 667.815 28.4464 667.13 26.9343L663.487 28.5852C663.935 29.5731 664.158 30.6098 664.158 31.7148H668.158ZM667.141 26.9581C666.47 25.4256 665.478 24.0942 664.192 22.9717L661.562 25.9854C662.424 26.7378 663.053 27.594 663.476 28.5614L667.141 26.9581ZM664.221 22.9974C662.943 21.8376 661.404 20.9599 659.649 20.3376L658.312 24.1078C659.643 24.5792 660.702 25.2053 661.533 25.9596L664.221 22.9974ZM659.677 20.348C657.891 19.6839 655.91 19.373 653.766 19.373V23.373C655.528 23.373 657.023 23.6286 658.283 24.0973L659.677 20.348ZM653.766 19.373C651.621 19.373 649.633 19.6841 647.832 20.3452L649.211 24.1002C650.496 23.6284 652.004 23.373 653.766 23.373V19.373ZM647.846 20.3403C646.111 20.9629 644.583 21.8377 643.295 22.9852L645.955 25.9718C646.816 25.2052 647.885 24.5761 649.197 24.105L647.846 20.3403ZM643.296 22.9837C642.038 24.1019 641.057 25.4218 640.372 26.9343L644.015 28.5852C644.463 27.5977 645.102 26.7301 645.954 25.9733L643.296 22.9837ZM640.361 26.9581C639.702 28.4651 639.373 30.0568 639.373 31.7148H643.373C643.373 30.5994 643.591 29.5544 644.026 28.5614L640.361 26.9581ZM692.467 63.1211V65.1211H694.467V63.1211H692.467ZM683.795 63.1211H681.795V65.1211H683.795V63.1211ZM683.795 14.4297V12.4297H681.795V14.4297H683.795ZM692.467 14.4297H694.467V12.4297H692.467V14.4297ZM692.467 17.6816H690.467V21.4988L693.605 19.326L692.467 17.6816ZM702.193 14.1367L702.497 16.1135L702.512 16.1112L702.527 16.1087L702.193 14.1367ZM714.059 15.1035L713.395 16.9901L713.399 16.9917L714.059 15.1035ZM720.387 18.7363L721.715 17.2415L720.387 18.7363ZM724.488 24.3613L722.662 25.1766L722.666 25.1865L722.671 25.1963L724.488 24.3613ZM724.43 39.0391L726.24 39.8883L726.243 39.8822L724.43 39.0391ZM720.123 44.7227L721.427 46.2389L721.429 46.2378L720.123 44.7227ZM713.619 48.3555L714.256 50.2514L714.265 50.2484L713.619 48.3555ZM701.754 49.3809L701.498 51.3644L701.502 51.3649L701.754 49.3809ZM698.238 48.7363L697.761 50.6786L697.769 50.6805L698.238 48.7363ZM695.074 47.7695L694.331 49.6265L694.354 49.6354L694.376 49.6437L695.074 47.7695ZM692.467 46.5098L693.483 44.787L690.467 43.0084V46.5098H692.467ZM692.467 38.1309H690.467V39.0921L691.217 39.6926L692.467 38.1309ZM695.25 39.918L696.144 38.1291L695.25 39.918ZM698.238 41.1191L698.826 39.2076L698.238 41.1191ZM701.314 41.8223L701.016 43.7999L701.034 43.8026L701.053 43.805L701.314 41.8223ZM709.635 41.2363L710.282 43.1288L710.289 43.1265L710.295 43.124L709.635 41.2363ZM713.561 39.0098L712.245 37.5029L712.239 37.5089L712.232 37.5149L713.561 39.0098ZM716.021 27.6426L714.194 28.4549L714.199 28.4669L714.205 28.4789L716.021 27.6426ZM713.619 24.4199L712.277 25.9023L712.291 25.9156L712.306 25.9285L713.619 24.4199ZM709.84 22.2227L709.14 24.0963L709.155 24.1019L709.17 24.1073L709.84 22.2227ZM701.373 21.7539L701.734 23.7211L701.75 23.7182L701.765 23.7151L701.373 21.7539ZM697.975 22.6914L697.272 20.8187L697.261 20.823L697.975 22.6914ZM694.928 24.1855L693.883 22.4798L693.876 22.4847L693.868 22.4896L694.928 24.1855ZM692.467 26.1484L691.033 24.7537L690.467 25.336V26.1484H692.467ZM692.467 61.1211H683.795V65.1211H692.467V61.1211ZM685.795 63.1211V14.4297H681.795V63.1211H685.795ZM683.795 16.4297H692.467V12.4297H683.795V16.4297ZM690.467 14.4297V17.6816H694.467V14.4297H690.467ZM693.605 19.326C694.249 18.8805 695.038 18.4392 695.987 18.0094L694.337 14.3656C693.216 14.8733 692.208 15.4281 691.328 16.0373L693.605 19.326ZM695.987 18.0094C696.931 17.582 697.957 17.2031 699.068 16.8753L697.936 13.0388C696.664 13.4141 695.464 13.8555 694.337 14.3656L695.987 18.0094ZM699.068 16.8753C700.171 16.5499 701.313 16.2956 702.497 16.1135L701.889 12.16C700.534 12.3684 699.216 12.661 697.936 13.0388L699.068 16.8753ZM702.527 16.1087C703.688 15.9122 704.846 15.8145 706.002 15.8145V11.8145C704.619 11.8145 703.238 11.9315 701.86 12.1648L702.527 16.1087ZM706.002 15.8145C708.735 15.8145 711.193 16.215 713.395 16.9901L714.723 13.217C712.042 12.2733 709.128 11.8145 706.002 11.8145V15.8145ZM713.399 16.9917C715.64 17.7743 717.516 18.8601 719.058 20.2311L721.715 17.2415C719.742 15.4875 717.399 14.1515 714.718 13.2153L713.399 16.9917ZM719.058 20.2311C720.6 21.6014 721.799 23.2434 722.662 25.1766L726.315 23.546C725.224 21.1042 723.689 18.9962 721.715 17.2415L719.058 20.2311ZM722.671 25.1963C723.535 27.076 723.982 29.1893 723.982 31.5684H727.982C727.982 28.674 727.434 25.9826 726.306 23.5263L722.671 25.1963ZM723.982 31.5684C723.982 34.0666 723.514 36.2639 722.616 38.1959L726.243 39.8822C727.415 37.3611 727.982 34.578 727.982 31.5684H723.982ZM722.619 38.1898C721.703 40.1433 720.439 41.8105 718.817 43.2076L721.429 46.2378C723.479 44.4707 725.086 42.3489 726.24 39.8883L722.619 38.1898ZM718.819 43.2064C717.216 44.585 715.278 45.6764 712.973 46.4626L714.265 50.2484C716.999 49.3158 719.397 47.9853 721.427 46.2389L718.819 43.2064ZM712.982 46.4596C710.709 47.2233 708.212 47.6152 705.475 47.6152V51.6152C708.597 51.6152 711.529 51.1673 714.256 50.2513L712.982 46.4596ZM705.475 47.6152C704.308 47.6152 703.152 47.5423 702.006 47.3968L701.502 51.3649C702.817 51.5319 704.141 51.6152 705.475 51.6152V47.6152ZM702.01 47.3973C700.867 47.2499 699.767 47.0478 698.708 46.7922L697.769 50.6805C698.975 50.9717 700.219 51.1993 701.498 51.3644L702.01 47.3973ZM698.715 46.7941C697.671 46.5376 696.691 46.2375 695.772 45.8954L694.376 49.6437C695.45 50.0437 696.579 50.3882 697.761 50.6786L698.715 46.7941ZM695.817 45.9126C694.918 45.5528 694.142 45.1761 693.483 44.787L691.451 48.2325C692.315 48.7419 693.278 49.205 694.331 49.6265L695.817 45.9126ZM690.467 46.5098V63.1211H694.467V46.5098H690.467ZM691.217 39.6926C692.203 40.481 693.249 41.1536 694.356 41.7068L696.144 38.1291C695.298 37.7057 694.488 37.187 693.716 36.5691L691.217 39.6926ZM694.356 41.7068C695.428 42.243 696.526 42.6849 697.65 43.0307L698.826 39.2076C697.919 38.9284 697.025 38.5695 696.144 38.1291L694.356 41.7068ZM697.65 43.0307C698.759 43.3719 699.881 43.6286 701.016 43.7999L701.613 39.8447C700.677 39.7034 699.749 39.4914 698.826 39.2076L697.65 43.0307ZM701.053 43.805C702.169 43.9524 703.262 44.0273 704.332 44.0273V40.0273C703.449 40.0273 702.531 39.9655 701.576 39.8395L701.053 43.805ZM704.332 44.0273C706.497 44.0273 708.49 43.7411 710.282 43.1288L708.988 39.3438C707.694 39.7862 706.151 40.0273 704.332 40.0273V44.0273ZM710.295 43.124C712.062 42.5057 713.609 41.6426 714.889 40.5046L712.232 37.5149C711.403 38.2519 710.332 38.8732 708.974 39.3486L710.295 43.124ZM714.876 40.5166C716.163 39.3933 717.16 38.0556 717.848 36.5141L714.195 34.8843C713.75 35.8819 713.107 36.7512 712.245 37.5029L714.876 40.5166ZM717.848 36.5141C718.536 34.971 718.871 33.3142 718.871 31.5684H714.871C714.871 32.7913 714.639 33.8883 714.195 34.8843L717.848 36.5141ZM718.871 31.5684C718.871 29.9 718.528 28.3054 717.838 26.8063L714.205 28.4789C714.647 29.4407 714.871 30.4633 714.871 31.5684H718.871ZM717.849 26.8303C717.179 25.3226 716.199 24.0135 714.932 22.9113L712.306 25.9285C713.149 26.6623 713.77 27.5016 714.194 28.4549L717.849 26.8303ZM714.962 22.9375C713.707 21.8016 712.211 20.9425 710.509 20.3381L709.17 24.1073C710.438 24.5575 711.461 25.1633 712.277 25.9023L714.962 22.9375ZM710.539 20.349C708.816 19.7054 706.923 19.4023 704.889 19.4023V23.4023C706.527 23.4023 707.934 23.6462 709.14 24.0963L710.539 20.349ZM704.889 19.4023C703.583 19.4023 702.279 19.5331 700.981 19.7927L701.765 23.7151C702.811 23.506 703.851 23.4023 704.889 23.4023V19.4023ZM701.012 19.7867C699.726 20.0225 698.479 20.3662 697.272 20.8187L698.677 24.5641C699.658 24.1963 700.676 23.915 701.734 23.7211L701.012 19.7867ZM697.261 20.823C696.075 21.276 694.948 21.828 693.883 22.4798L695.972 25.8912C696.821 25.3712 697.726 24.9271 698.688 24.5598L697.261 20.823ZM693.868 22.4896C692.807 23.1525 691.859 23.9056 691.033 24.7537L693.9 27.5431C694.481 26.946 695.173 26.3905 695.988 25.8815L693.868 22.4896ZM690.467 26.1484V38.1309H694.467V26.1484H690.467ZM733.98 24.8887L735.805 25.7087L735.807 25.7025L733.98 24.8887ZM744.703 15.2793L744.004 13.4055L743.999 13.4072L744.703 15.2793ZM762.516 15.3086L761.809 17.1795L761.817 17.1827L761.825 17.1858L762.516 15.3086ZM769.254 19.3516L767.887 20.8116L767.895 20.8188L769.254 19.3516ZM773.502 25.416L771.658 26.1907L771.661 26.1973L771.664 26.2039L773.502 25.416ZM774.967 33.9707L772.969 33.8708L772.967 33.9207V33.9707H774.967ZM774.908 34.9961V36.9961H776.674L776.893 35.2442L774.908 34.9961ZM742.213 34.9961V32.9961H739.371L740.33 35.671L742.213 34.9961ZM744 37.8379L742.553 39.2188L742.561 39.2273L742.57 39.2358L744 37.8379ZM751.471 41.5293L751.052 43.4849L751.063 43.4873L751.074 43.4896L751.471 41.5293ZM762.867 41.4121L763.274 43.3702L763.284 43.3683L763.293 43.3663L762.867 41.4121ZM768.521 39.8008L770.35 38.9915L769.598 37.29L767.846 37.9182L768.521 39.8008ZM771.451 46.4219L772.295 48.235L774.074 47.407L773.28 45.6126L771.451 46.4219ZM767.994 47.8281L768.636 49.7223L768.646 49.7191L768.655 49.7158L767.994 47.8281ZM764.361 48.8242L764.759 50.7842L764.771 50.7819L764.782 50.7794L764.361 48.8242ZM760.406 49.4102L760.21 47.4198L760.207 47.4201L760.406 49.4102ZM765.797 28.2285V30.2285H768.554L767.698 27.6077L765.797 28.2285ZM764.332 25.5625L762.745 26.7801L762.761 26.8007L762.778 26.8209L764.332 25.5625ZM761.9 23.3945L760.822 25.0791L760.834 25.0868L760.847 25.0943L761.9 23.3945ZM743.678 25.6211L742.141 24.3407L742.132 24.3516L742.123 24.3627L743.678 25.6211ZM742.213 28.2285L740.32 27.584L739.419 30.2285H742.213V28.2285ZM734.545 31.5977C734.545 29.5354 734.964 27.5787 735.805 25.7087L732.156 24.0686C731.083 26.4565 730.545 28.9724 730.545 31.5977H734.545ZM735.807 25.7025C736.648 23.8144 737.859 22.1435 739.46 20.682L736.763 17.7281C734.77 19.5479 733.227 21.666 732.154 24.0749L735.807 25.7025ZM739.46 20.682C741.044 19.2353 743.014 18.0509 745.407 17.1514L743.999 13.4072C741.197 14.4608 738.772 15.8936 736.763 17.7281L739.46 20.682ZM745.402 17.1531C747.758 16.2741 750.484 15.8145 753.609 15.8145V11.8145C750.094 11.8145 746.883 12.3314 744.004 13.4055L745.402 17.1531ZM753.609 15.8145C756.709 15.8145 759.433 16.282 761.809 17.1795L763.222 13.4376C760.325 12.343 757.111 11.8145 753.609 11.8145V15.8145ZM761.825 17.1858C764.262 18.0815 766.27 19.2974 767.887 20.8116L770.621 17.8915C768.566 15.9683 766.082 14.4888 763.206 13.4314L761.825 17.1858ZM767.895 20.8188C769.542 22.3445 770.792 24.1301 771.658 26.1907L775.346 24.6413C774.258 22.0535 772.677 19.7961 770.613 17.8843L767.895 20.8188ZM771.664 26.2039C772.548 28.2666 772.996 30.4874 772.996 32.8867H776.996C776.996 29.9735 776.448 27.2138 775.34 24.6282L771.664 26.2039ZM772.996 32.8867C772.996 33.1802 772.987 33.5078 772.969 33.8708L776.964 34.0706C776.985 33.6523 776.996 33.2573 776.996 32.8867H772.996ZM772.967 33.9707C772.967 34.273 772.951 34.5308 772.924 34.748L776.893 35.2442C776.944 34.8364 776.967 34.4106 776.967 33.9707H772.967ZM774.908 32.9961H742.213V36.9961H774.908V32.9961ZM740.33 35.671C740.803 36.99 741.556 38.1737 742.553 39.2188L745.447 36.4569C744.804 35.7834 744.365 35.0725 744.096 34.3212L740.33 35.671ZM742.57 39.2358C743.588 40.278 744.823 41.1446 746.24 41.8533L748.029 38.2756C746.947 37.7343 746.092 37.1166 745.43 36.44L742.57 39.2358ZM746.24 41.8533C747.668 42.567 749.278 43.1048 751.052 43.4849L751.89 39.5737C750.382 39.2506 749.102 38.8119 748.029 38.2756L746.24 41.8533ZM751.074 43.4896C752.867 43.8524 754.819 44.0273 756.92 44.0273V40.0273C755.037 40.0273 753.356 39.8702 751.867 39.569L751.074 43.4896ZM756.92 44.0273C759.05 44.0273 761.169 43.8079 763.274 43.3702L762.46 39.454C760.62 39.8366 758.774 40.0273 756.92 40.0273V44.0273ZM763.293 43.3663C765.345 42.9192 767.314 42.3587 769.197 41.6833L767.846 37.9182C766.135 38.5319 764.334 39.0456 762.442 39.4579L763.293 43.3663ZM766.693 40.6101L769.622 47.2311L773.28 45.6126L770.35 38.9915L766.693 40.6101ZM770.607 44.6087C769.534 45.1084 768.443 45.5522 767.333 45.9404L768.655 49.7158C769.889 49.2837 771.103 48.7901 772.295 48.235L770.607 44.6087ZM767.352 45.934C766.277 46.2985 765.14 46.6107 763.94 46.8691L764.782 50.7794C766.122 50.4909 767.407 50.139 768.636 49.7223L767.352 45.934ZM763.963 46.8642C762.786 47.1034 761.535 47.2892 760.21 47.4198L760.602 51.4005C762.051 51.2577 763.437 51.0528 764.759 50.7842L763.963 46.8642ZM760.207 47.4201C758.913 47.5495 757.534 47.6152 756.07 47.6152V51.6152C757.653 51.6152 759.165 51.5442 760.605 51.4002L760.207 47.4201ZM756.07 47.6152C752.339 47.6152 749.144 47.1645 746.455 46.3041L745.236 50.1138C748.407 51.1285 752.029 51.6152 756.07 51.6152V47.6152ZM746.455 46.3041C743.718 45.4283 741.504 44.2572 739.762 42.8259L737.222 45.9163C739.426 47.7271 742.114 49.1146 745.236 50.1138L746.455 46.3041ZM739.762 42.8259C738.01 41.3862 736.721 39.7221 735.859 37.8294L732.219 39.487C733.349 41.9693 735.029 44.1138 737.222 45.9163L739.762 42.8259ZM735.859 37.8294C734.987 35.9147 734.545 33.8453 734.545 31.5977H730.545C730.545 34.389 731.099 37.0268 732.219 39.487L735.859 37.8294ZM767.698 27.6077C767.306 26.4077 766.697 25.3047 765.887 24.3041L762.778 26.8209C763.296 27.4609 763.663 28.1353 763.896 28.8493L767.698 27.6077ZM765.919 24.3449C765.115 23.2977 764.118 22.4165 762.954 21.6947L760.847 25.0943C761.635 25.5835 762.26 26.1476 762.745 26.7801L765.919 24.3449ZM762.978 21.71C761.808 20.9607 760.483 20.397 759.028 20.0002L757.976 23.8592C759.099 24.1655 760.04 24.5784 760.822 25.0791L762.978 21.71ZM759.028 20.0002C757.544 19.5953 755.948 19.4023 754.254 19.4023V23.4023C755.646 23.4023 756.882 23.561 757.976 23.8592L759.028 20.0002ZM754.254 19.4023C752.464 19.4023 750.788 19.6046 749.241 20.0308L750.302 23.8872C751.45 23.5712 752.762 23.4023 754.254 23.4023V19.4023ZM749.241 20.0308C747.741 20.4436 746.38 21.0105 745.178 21.7498L747.275 25.1564C748.105 24.6458 749.106 24.2165 750.302 23.8872L749.241 20.0308ZM745.178 21.7498C744 22.4753 742.979 23.3357 742.141 24.3407L745.214 26.9015C745.744 26.2659 746.422 25.681 747.275 25.1564L745.178 21.7498ZM742.123 24.3627C741.324 25.3499 740.714 26.4241 740.32 27.584L744.106 28.873C744.336 28.197 744.703 27.5329 745.232 26.8795L742.123 24.3627ZM742.213 30.2285H765.797V26.2285H742.213V30.2285ZM784.342 14.4297V12.4297H782.342V14.4297H784.342ZM793.014 14.4297H795.014V12.4297H793.014V14.4297ZM793.014 19.4102H791.014V23.3938L794.208 21.0141L793.014 19.4102ZM805.436 13.3457L807.34 12.7344L806.762 10.9356L804.934 11.4097L805.436 13.3457ZM807.984 21.2852L808.182 23.2753L810.645 23.0305L809.889 20.6738L807.984 21.2852ZM799.166 23.541L799.998 25.3598L800.004 25.3569L799.166 23.541ZM793.014 28.4336L791.414 27.2336L791.014 27.7669V28.4336H793.014ZM793.014 49V51H795.014V49H793.014ZM784.342 49H782.342V51H784.342V49ZM784.342 16.4297H793.014V12.4297H784.342V16.4297ZM791.014 14.4297V19.4102H795.014V14.4297H791.014ZM794.208 21.0141C796.023 19.6625 797.937 18.4974 799.953 17.5174L798.204 13.9201C795.961 15.0105 793.833 16.3063 791.819 17.8062L794.208 21.0141ZM799.953 17.5174C801.972 16.5353 803.967 15.7925 805.937 15.2817L804.934 11.4097C802.685 11.9926 800.442 12.8319 798.204 13.9201L799.953 17.5174ZM803.531 13.957L806.08 21.8965L809.889 20.6738L807.34 12.7344L803.531 13.957ZM807.787 19.295C804.268 19.6448 801.105 20.4433 798.328 21.7251L800.004 25.3569C802.305 24.2949 805.021 23.5896 808.182 23.2753L807.787 19.295ZM798.334 21.7222C795.527 23.0062 793.206 24.8434 791.414 27.2336L794.614 29.6336C795.985 27.8051 797.766 26.3806 799.998 25.3598L798.334 21.7222ZM791.014 28.4336V49H795.014V28.4336H791.014ZM793.014 47H784.342V51H793.014V47ZM786.342 49V14.4297H782.342V49H786.342Z" fill="#3F3030"/>
</svg>
