<svg width="708" height="612" viewBox="0 0 708 612" fill="none" xmlns="http://www.w3.org/2000/svg">
<path d="M471.794 39.4243C350.768 129.681 394.872 219.765 430.77 257.372L461.539 149.68L597.436 67.6286C609.402 81.3038 636.923 108.654 651.282 108.654C665.641 108.654 689.744 117.201 700 121.475L689.744 80.4492C648.718 -34.4224 526.495 7.80039 471.794 39.4243Z" fill="#D84242" stroke="#161616" stroke-width="10"/>
<path d="M105.129 213.782C160.514 205.577 200.001 266.774 212.821 298.398L202.565 321.474C189.744 312.927 159.488 298.91 141.026 311.218C117.95 326.603 117.95 359.936 123.078 413.782C128.206 467.628 110.257 503.525 64.1035 511.218C17.9498 518.91 48.7189 501.186 53.8471 493.269C82.0521 457.372 41.0268 421.474 25.6422 349.679C10.2576 277.885 35.8986 224.039 105.129 213.782Z" fill="#D84242" stroke="#161616" stroke-width="10"/>
<path d="M635.898 39.4239C642.052 47.629 635.043 65.0649 630.77 72.7572C661.538 89.005 653.846 127.39 646.154 144.552C642.736 150.535 636.924 168.654 641.026 193.27C646.154 224.039 641.026 229.167 615.385 231.731C594.872 233.782 588.035 220.62 587.18 213.782C572.821 168.654 557.265 160.791 551.283 162.5C530.77 164.552 547.864 214.637 558.975 239.423C624.616 368.654 526.496 412.927 469.232 418.91C413.847 451.731 347.01 442.842 320.514 434.295C279.488 449.679 223.078 434.295 207.693 418.91C192.309 403.526 169.232 354.808 200.001 303.526C224.616 262.5 285.471 250.534 312.821 249.68H430.77C432.821 108.142 535.898 62.5007 587.18 57.3726C592.308 49.6803 628.205 29.1675 635.898 39.4239Z" fill="white" stroke="#161616" stroke-width="10"/>
<path d="M225.642 495.833C303.591 477.372 316.24 426.602 312.821 403.526C311.967 392.414 304.616 368.654 282.052 362.5C253.847 354.808 228.206 357.372 212.822 370.192C197.437 383.013 189.745 406.09 205.129 434.295C220.514 462.5 184.617 483.013 179.488 483.013C175.215 483.013 168.719 485.577 176.924 495.833C187.181 508.654 205.13 501.926 225.642 495.833Z" fill="white" stroke="#161616" stroke-width="10"/>
<path d="M196.033 485.513C183.48 475.321 172.135 482.376 168.032 487.177C152.297 510.031 109.766 555.355 65.5157 553.817C55.159 553.347 35.4663 555.211 39.5502 566.427C44.655 580.447 57.9795 584.763 68.5528 583.585C163.487 574.69 193.933 527.958 198.725 517.907C203.518 507.856 211.724 498.254 196.033 485.513Z" fill="white" stroke="#161616" stroke-width="10"/>
<path d="M55.1269 556.101L62.5964 581.452L22.5742 603.261L23.9601 552.867L55.1269 556.101Z" fill="#6D3737" stroke="#161616" stroke-width="10"/>
<path d="M655.31 448.215C662.633 438.015 653.684 424.744 648.294 419.384C642.904 414.024 631.396 407.287 628.485 423.22C624.846 443.136 553.001 492.728 543.096 494.646C533.192 496.564 536.324 505.563 544.597 516.311C551.215 524.91 562.649 523.336 567.538 521.474C625.84 493.717 646.155 460.966 655.31 448.215Z" fill="white" stroke="#161616" stroke-width="10"/>
<path d="M479.606 358.733C487.811 334.118 527.469 335.656 546.272 338.22C556.529 339.93 589.862 356.682 641.144 410.015C653.964 420.272 653.964 417.708 656.529 430.528C658.58 440.784 652.255 441.639 648.836 440.784C614.648 438.22 540.631 431.041 518.067 422.836C489.862 412.579 469.349 389.502 479.606 358.733Z" fill="white" stroke="#161616" stroke-width="10"/>
<path d="M600 193.27L564.103 62.5006L579.486 59.9365L597.436 116.347L630.768 72.757L641.026 80.4493L602.564 134.295L617.949 188.141L638.462 183.013L641.026 206.09L589.744 218.911L582.051 198.398L600 193.27Z" fill="#FCB90D" stroke="#161616" stroke-width="10"/>
<path d="M543.582 495.724L558.831 521.143L520.409 556.831L507.999 501.38L543.582 495.724Z" fill="#6D3737" stroke="#161616" stroke-width="10"/>
<circle cx="621.25" cy="140.997" r="8.75" fill="#161616"/>
<rect x="364" y="349.247" width="15.75" height="91" fill="#B5A1DE"/>
<path d="M364.875 347.497V441.122" stroke="black" stroke-width="10"/>
<path d="M379.75 348.372V441.997C375.375 442.289 366.275 442.347 364.875 440.247" stroke="black" stroke-width="10"/>
<path d="M364.875 347.497C368.375 347.789 376.25 348.197 379.75 347.497" stroke="black" stroke-width="10"/>
<path d="M429 304.622C429 315.522 423.177 325.755 413.042 333.428C402.904 341.104 388.675 345.997 372.75 345.997C356.825 345.997 342.596 341.104 332.458 333.428C322.323 325.755 316.5 315.522 316.5 304.622C316.5 293.722 322.323 283.49 332.458 275.817C342.596 268.141 356.825 263.247 372.75 263.247C388.675 263.247 402.904 268.141 413.042 275.817C423.177 283.49 429 293.722 429 304.622Z" fill="#545B97" stroke="#161616" stroke-width="10"/>
<rect x="316.5" y="252.747" width="112.5" height="48.587" fill="#545B97" stroke="#161616" stroke-width="10"/>
<rect x="321" y="296" width="102.5" height="11" fill="#545B97"/>
<path d="M411.5 294.91C411.5 312.977 395.051 328.498 373.625 328.498C352.199 328.498 335.75 312.977 335.75 294.91C335.75 276.843 352.199 261.323 373.625 261.323C395.051 261.323 411.5 276.843 411.5 294.91Z" fill="#7D86DA" stroke="#161616" stroke-width="10"/>
<rect x="335.75" y="252.747" width="75.75" height="37.1625" fill="#7D86DA" stroke="#161616" stroke-width="10"/>
<rect x="341" y="282" width="65" height="13" fill="#7D86DA"/>
<ellipse cx="326.333" cy="265.435" rx="3.33333" ry="3.43478" fill="#C5CAFA"/>
<ellipse cx="326.333" cy="287.761" rx="3.33333" ry="3.43478" fill="#C5CAFA"/>
<ellipse cx="329.667" cy="310.087" rx="3.33333" ry="3.43478" fill="#C5CAFA"/>
<ellipse cx="344.667" cy="328.978" rx="3.33333" ry="3.43478" fill="#C5CAFA"/>
<ellipse cx="373" cy="337.565" rx="3.33333" ry="3.43478" fill="#C5CAFA"/>
<ellipse cx="401.333" cy="328.978" rx="3.33333" ry="3.43478" fill="#C5CAFA"/>
<ellipse cx="418" cy="310.087" rx="3.33333" ry="3.43478" fill="#C5CAFA"/>
<ellipse cx="419.667" cy="286.043" rx="3.33333" ry="3.43478" fill="#C5CAFA"/>
<ellipse cx="419.667" cy="265.435" rx="3.33333" ry="3.43478" fill="#C5CAFA"/>
</svg>
