<svg width="138" height="120" viewBox="0 0 138 120" fill="none" xmlns="http://www.w3.org/2000/svg">
<path d="M92 8C68.4 25.6 77.0003 43.1665 84.0003 50.4999L90.0003 29.4998L116.5 13.4998C118.834 16.1665 124.2 21.4998 127 21.4998C129.8 21.4998 134.5 23.1665 136.5 23.9998L134.5 15.9999C126.5 -6.40013 102.667 1.83333 92 8Z" fill="#D84242" stroke="#161616" stroke-width="1.5"/>
<path d="M20.5003 41.9999C31.3003 40.3999 39.0003 52.3332 41.5003 58.4999L39.5002 62.9999C37.0002 61.3332 31.1002 58.5999 27.5002 60.9999C23.0002 63.9999 23.0002 70.4999 24.0002 80.9999C25.0002 91.4999 21.5002 98.4999 12.5002 99.9999C3.50024 101.5 9.50024 98.0436 10.5002 96.4999C16.0002 89.4999 8.00027 82.4999 5.00027 68.4999C2.00027 54.4999 7.00027 43.9999 20.5003 41.9999Z" fill="#D84242" stroke="#161616" stroke-width="1.5"/>
<path d="M124 7.99992C125.2 9.59992 123.834 12.9999 123 14.4999C129 17.6682 127.5 25.1534 126 28.4999C125.334 29.6665 124.2 33.1999 125 37.9999C126 43.9999 125 44.9999 120 45.4999C116 45.8999 114.667 43.3332 114.5 41.9999C111.7 33.1999 108.667 31.6665 107.5 31.9999C103.5 32.3999 106.834 42.1665 109 46.9999C121.8 72.1999 102.667 80.8332 91.5002 81.9999C80.7002 88.3999 67.6669 86.6665 62.5002 84.9999C54.5002 87.9999 43.5002 84.9999 40.5002 81.9999C37.5002 78.9999 33.0002 69.4999 39.0002 59.4999C43.8002 51.4999 55.6669 49.1665 61.0002 48.9999H84.0002C84.4002 21.3999 104.5 12.4999 114.5 11.4999C115.5 9.99992 122.5 5.99992 124 7.99992Z" fill="white" stroke="#161616" stroke-width="1.5"/>
<path d="M44.0003 96.9999C59.2003 93.3999 61.667 83.4999 61.0003 78.9999C60.8336 76.8332 59.4003 72.1999 55.0003 70.9999C49.5003 69.4999 44.5003 69.9999 41.5003 72.4999C38.5003 74.9999 37.0003 79.4999 40.0003 84.9999C43.0003 90.4999 36.0003 94.4999 35.0003 94.4999C34.167 94.4999 32.9003 94.9999 34.5003 96.9999C36.5003 99.4999 40.0003 98.1881 44.0003 96.9999Z" fill="white" stroke="#161616" stroke-width="1.5"/>
<path d="M39.056 93.7595C36.4199 91.773 34.1387 93.2564 33.3275 94.2464C30.2448 98.9383 21.8097 108.304 12.7312 108.234C10.6057 108.195 6.58128 108.678 7.48795 110.916C8.62128 113.715 11.3789 114.512 13.5386 114.218C32.9399 111.911 38.8893 102.326 39.809 100.275C40.7288 98.2227 42.351 96.2426 39.056 93.7595Z" fill="white" stroke="#161616" stroke-width="1.5"/>
<path d="M11.1597 109.347L12.1883 112.838C12.3547 113.403 12.1044 114.007 11.5873 114.289L6.07367 117.294C5.22734 117.755 4.19952 117.125 4.22602 116.162L4.41691 109.221C4.43691 108.493 5.07163 107.937 5.79545 108.012L10.0897 108.457C10.5938 108.51 11.0165 108.861 11.1597 109.347Z" fill="#6D3737" stroke="#161616" stroke-width="1.5"/>
<path d="M127.786 87.7143C129.214 85.7252 127.469 83.1375 126.418 82.0923C125.367 81.0471 123.123 79.7334 122.555 82.8403C121.845 86.724 107.835 96.3944 105.904 96.7684C103.973 97.1424 104.583 98.8972 106.197 100.993C107.487 102.67 109.717 102.363 110.67 102C122.039 96.5872 126.001 90.2007 127.786 87.7143Z" fill="white" stroke="#161616" stroke-width="1.5"/>
<path d="M93.5233 70.2653C95.1233 65.4653 102.857 65.7653 106.523 66.2653C108.523 66.5987 115.023 69.8654 125.023 80.2653C127.523 82.2653 127.523 81.7653 128.023 84.2653C128.423 86.2653 127.19 86.432 126.523 86.2653C119.857 85.7653 105.423 84.3653 101.023 82.7653C95.5233 80.7653 91.5233 76.2653 93.5233 70.2653Z" fill="white" stroke="#161616" stroke-width="1.5"/>
<path d="M117 37.9999L110 12.4999L113 11.9999L116.5 22.9999L123 14.4999L125 15.9999L117.5 26.4999L120.5 36.9999L124.5 35.9999L125 40.4999L115 42.9999L113.5 38.9999L117 37.9999Z" fill="#FCB90D" stroke="#161616" stroke-width="1.5"/>
<path d="M106.548 97.4564L108.738 101.107C109.042 101.613 108.949 102.264 108.516 102.666L102.941 107.844C102.234 108.501 101.081 108.143 100.87 107.202L99.0786 99.1955C98.9212 98.4918 99.3901 97.8012 100.102 97.688L105.28 96.8649C105.783 96.7849 106.285 97.0189 106.548 97.4564Z" fill="#6D3737" stroke="#161616" stroke-width="1.5"/>
<circle cx="120.5" cy="28.4999" r="1.5" fill="#161616"/>
</svg>
